<svg xmlns="http://www.w3.org/2000/svg" xmlns:xlink="http://www.w3.org/1999/xlink" width="250" zoomAndPan="magnify" viewBox="0 0 187.5 37.5" height="50" preserveAspectRatio="xMidYMid meet" version="1.0"><defs><clipPath id="fb8888e4c3"><path d="M 63.847656 1.480469 L 123.027344 1.480469 L 123.027344 34.875 L 63.847656 34.875 Z M 63.847656 1.480469 " clip-rule="nonzero"/></clipPath><clipPath id="d0bcd40885"><path d="M 29 7.421875 L 55.125 7.421875 L 55.125 21 L 29 21 Z M 29 7.421875 " clip-rule="nonzero"/></clipPath><clipPath id="9c62f0b51d"><path d="M 31 20 L 49 20 L 49 29.683594 L 31 29.683594 Z M 31 20 " clip-rule="nonzero"/></clipPath><clipPath id="8c7d3664ec"><path d="M 26.925781 9 L 45 9 L 45 19 L 26.925781 19 Z M 26.925781 9 " clip-rule="nonzero"/></clipPath><clipPath id="43dbbb4e88"><path d="M 135 7.421875 L 161.015625 7.421875 L 161.015625 21 L 135 21 Z M 135 7.421875 " clip-rule="nonzero"/></clipPath><clipPath id="11451d48b7"><path d="M 137 20 L 155 20 L 155 29.683594 L 137 29.683594 Z M 137 20 " clip-rule="nonzero"/></clipPath><clipPath id="ce85fe9e6c"><path d="M 132.816406 9 L 150 9 L 150 19 L 132.816406 19 Z M 132.816406 9 " clip-rule="nonzero"/></clipPath></defs><g clip-path="url(#fb8888e4c3)"><path fill="#000000" d="M 75.75 10.976562 C 82.265625 10.976562 87.578125 16.253906 87.648438 22.765625 L 89.316406 22.765625 L 84.078125 4.078125 L 81.261719 4.078125 L 81.261719 2.035156 C 81.261719 1.757812 81.484375 1.535156 81.761719 1.535156 C 82.035156 1.535156 82.261719 1.757812 82.261719 2.035156 L 82.261719 3.078125 L 87.148438 3.078125 C 87.425781 3.078125 87.648438 3.300781 87.648438 3.578125 C 87.648438 3.851562 87.425781 4.078125 87.148438 4.078125 L 85.113281 4.078125 L 85.882812 6.820312 L 97.757812 6.820312 C 98.035156 6.820312 98.257812 7.046875 98.257812 7.320312 C 98.257812 7.597656 98.035156 7.820312 97.757812 7.820312 L 95.617188 7.820312 C 96.457031 10.722656 97.609375 13.257812 99.039062 15.378906 L 102.464844 4.078125 L 100.535156 4.078125 C 100.257812 4.078125 100.035156 3.855469 100.035156 3.578125 C 100.035156 3.304688 100.257812 3.078125 100.535156 3.078125 L 103.128906 3.078125 C 103.132812 3.078125 103.132812 3.078125 103.136719 3.078125 L 105.402344 3.078125 C 106.707031 3.078125 107.878906 3.835938 108.390625 5.003906 C 108.679688 5.671875 108.703125 6.324219 108.453125 6.945312 C 107.933594 8.261719 106.367188 8.933594 106.300781 8.960938 C 106.238281 8.988281 106.171875 9 106.105469 9 C 105.914062 9 105.726562 8.886719 105.644531 8.695312 C 105.539062 8.4375 105.65625 8.144531 105.910156 8.035156 C 105.921875 8.03125 107.160156 7.492188 107.527344 6.570312 C 107.671875 6.199219 107.65625 5.816406 107.476562 5.402344 C 107.125 4.597656 106.308594 4.078125 105.402344 4.078125 L 103.507812 4.078125 L 99.769531 16.40625 C 100.066406 16.792969 100.375 17.160156 100.691406 17.515625 C 102.65625 13.636719 106.679688 10.972656 111.3125 10.972656 C 117.875 10.976562 123.214844 16.324219 123.214844 22.898438 C 123.214844 29.472656 117.875 34.820312 111.3125 34.820312 C 104.75 34.820312 99.410156 29.472656 99.410156 22.898438 C 99.410156 21.351562 99.703125 19.875 100.238281 18.519531 C 99.800781 18.054688 99.378906 17.554688 98.972656 17.03125 C 97.074219 14.5625 95.59375 11.464844 94.578125 7.824219 L 86.164062 7.824219 L 90.351562 22.765625 L 91.363281 22.765625 C 91.640625 22.765625 91.863281 22.988281 91.863281 23.265625 C 91.863281 23.539062 91.640625 23.765625 91.363281 23.765625 L 89.972656 23.765625 C 89.972656 23.765625 89.972656 23.765625 89.96875 23.765625 L 87.617188 23.765625 C 87.171875 29.933594 82.015625 34.816406 75.746094 34.816406 C 69.183594 34.816406 63.84375 29.46875 63.84375 22.894531 C 63.847656 16.324219 69.1875 10.976562 75.75 10.976562 Z M 111.3125 33.820312 C 117.324219 33.820312 122.214844 28.921875 122.214844 22.898438 C 122.214844 16.875 117.324219 11.976562 111.3125 11.976562 C 106.941406 11.976562 103.164062 14.566406 101.425781 18.292969 C 102.507812 19.367188 103.691406 20.261719 104.976562 20.972656 C 106.6875 21.917969 108.277344 22.367188 109.433594 22.578125 C 109.585938 21.675781 110.367188 20.988281 111.3125 20.988281 C 112.367188 20.988281 113.21875 21.84375 113.21875 22.898438 C 113.21875 23.953125 112.367188 24.808594 111.3125 24.808594 C 110.511719 24.808594 109.832031 24.316406 109.546875 23.617188 C 108.296875 23.417969 106.507812 22.953125 104.546875 21.875 C 103.28125 21.183594 102.101562 20.320312 101.019531 19.296875 C 100.625 20.425781 100.410156 21.636719 100.410156 22.898438 C 100.410156 28.917969 105.300781 33.820312 111.3125 33.820312 Z M 75.75 33.820312 C 81.46875 33.820312 86.175781 29.382812 86.617188 23.765625 L 75.933594 23.765625 L 75.261719 20.730469 C 75.199219 20.460938 75.371094 20.191406 75.640625 20.132812 C 75.90625 20.070312 76.175781 20.242188 76.234375 20.511719 L 76.734375 22.765625 L 86.648438 22.765625 C 86.574219 16.804688 81.714844 11.972656 75.746094 11.972656 C 69.777344 11.972656 64.917969 16.800781 64.847656 22.765625 L 74.648438 22.765625 C 74.921875 22.765625 75.148438 22.988281 75.148438 23.265625 C 75.148438 23.539062 74.921875 23.765625 74.648438 23.765625 L 64.878906 23.765625 C 65.324219 29.382812 70.027344 33.820312 75.75 33.820312 Z M 75.75 33.820312 " fill-opacity="1" fill-rule="nonzero"/></g><path fill="#000000" d="M 90.871094 26.273438 C 90.953125 26.332031 92.863281 27.746094 95.128906 26.664062 C 96.722656 25.90625 97.722656 24.234375 97.679688 22.410156 C 97.636719 20.605469 96.824219 19.375 95.113281 18.539062 C 95.078125 18.519531 94.925781 18.464844 94.78125 18.414062 C 94.25 18.296875 92.507812 18 90.773438 18.71875 L 90.042969 19.019531 L 90.164062 16.703125 C 90.179688 16.429688 90.414062 16.214844 90.6875 16.230469 C 90.964844 16.246094 91.175781 16.480469 91.160156 16.757812 L 91.121094 17.539062 C 92.894531 17.035156 94.527344 17.332031 95.03125 17.449219 L 95.082031 17.464844 C 95.1875 17.5 95.441406 17.589844 95.550781 17.640625 C 97.601562 18.644531 98.625 20.199219 98.679688 22.390625 C 98.730469 24.609375 97.507812 26.640625 95.558594 27.574219 C 94.785156 27.941406 94.042969 28.078125 93.375 28.078125 C 91.605469 28.078125 90.339844 27.128906 90.265625 27.074219 C 90.046875 26.90625 90.007812 26.59375 90.171875 26.371094 C 90.339844 26.152344 90.652344 26.109375 90.871094 26.273438 Z M 90.871094 26.273438 " fill-opacity="1" fill-rule="nonzero"/><g clip-path="url(#d0bcd40885)"><path fill="#231f20" d="M 49.320312 7.398438 C 49.007812 7.398438 48.695312 7.429688 48.390625 7.488281 C 48.082031 7.550781 47.785156 7.636719 47.496094 7.757812 C 47.207031 7.875 46.929688 8.019531 46.671875 8.191406 C 46.410156 8.363281 46.167969 8.558594 45.949219 8.773438 C 45.726562 8.992188 45.527344 9.230469 45.355469 9.488281 C 45.179688 9.742188 45.03125 10.015625 44.914062 10.300781 C 44.792969 10.585938 44.703125 10.878906 44.640625 11.183594 C 44.578125 11.484375 44.546875 11.789062 44.546875 12.097656 C 44.546875 12.613281 44.648438 13.109375 44.847656 13.582031 C 45.046875 14.054688 45.332031 14.476562 45.699219 14.839844 C 46.070312 15.203125 46.492188 15.484375 46.972656 15.679688 C 47.453125 15.878906 47.957031 15.976562 48.476562 15.976562 C 48.90625 15.976562 49.324219 15.894531 49.722656 15.734375 C 50.121094 15.570312 50.472656 15.339844 50.777344 15.039062 C 51.082031 14.738281 51.316406 14.390625 51.480469 13.996094 C 51.648438 13.601562 51.730469 13.195312 51.730469 12.769531 C 51.730469 12.414062 51.660156 12.070312 51.523438 11.746094 C 51.386719 11.417969 51.191406 11.128906 50.9375 10.878906 C 50.683594 10.625 50.390625 10.433594 50.058594 10.296875 C 49.726562 10.164062 49.378906 10.09375 49.019531 10.09375 C 48.71875 10.09375 48.425781 10.148438 48.144531 10.261719 C 47.867188 10.375 47.617188 10.539062 47.402344 10.75 C 47.1875 10.960938 47.023438 11.203125 46.90625 11.476562 C 46.792969 11.753906 46.734375 12.042969 46.734375 12.339844 C 46.734375 12.59375 46.78125 12.839844 46.882812 13.074219 C 46.980469 13.308594 47.121094 13.515625 47.300781 13.695312 C 47.484375 13.875 47.695312 14.015625 47.933594 14.113281 C 48.171875 14.210938 48.417969 14.257812 48.675781 14.257812 C 48.828125 14.253906 48.957031 14.199219 49.066406 14.09375 C 49.171875 13.988281 49.226562 13.859375 49.230469 13.710938 C 49.230469 13.558594 49.175781 13.429688 49.070312 13.324219 C 48.960938 13.214844 48.828125 13.164062 48.675781 13.164062 C 48.449219 13.160156 48.253906 13.078125 48.089844 12.917969 C 47.929688 12.757812 47.847656 12.566406 47.84375 12.339844 C 47.84375 12.1875 47.875 12.039062 47.9375 11.898438 C 47.996094 11.757812 48.082031 11.632812 48.191406 11.527344 C 48.300781 11.417969 48.429688 11.335938 48.574219 11.277344 C 48.714844 11.21875 48.863281 11.191406 49.019531 11.191406 C 49.230469 11.191406 49.433594 11.234375 49.628906 11.3125 C 49.824219 11.394531 49.996094 11.507812 50.148438 11.65625 C 50.296875 11.804688 50.414062 11.972656 50.496094 12.164062 C 50.574219 12.359375 50.617188 12.558594 50.617188 12.769531 C 50.617188 13.046875 50.5625 13.316406 50.453125 13.574219 C 50.34375 13.832031 50.1875 14.0625 49.988281 14.257812 C 49.789062 14.457031 49.554688 14.609375 49.292969 14.71875 C 49.03125 14.828125 48.761719 14.878906 48.476562 14.882812 C 48.101562 14.882812 47.742188 14.8125 47.398438 14.671875 C 47.050781 14.527344 46.746094 14.328125 46.480469 14.066406 C 46.21875 13.804688 46.015625 13.503906 45.871094 13.164062 C 45.726562 12.824219 45.65625 12.46875 45.65625 12.097656 C 45.65625 11.621094 45.75 11.160156 45.9375 10.71875 C 46.125 10.277344 46.390625 9.886719 46.734375 9.550781 C 47.078125 9.210938 47.472656 8.953125 47.921875 8.769531 C 48.367188 8.585938 48.835938 8.496094 49.320312 8.496094 C 49.628906 8.496094 49.933594 8.523438 50.238281 8.585938 C 50.542969 8.644531 50.835938 8.730469 51.121094 8.847656 C 51.40625 8.964844 51.679688 9.109375 51.933594 9.277344 C 52.191406 9.445312 52.429688 9.640625 52.648438 9.855469 C 52.867188 10.070312 53.0625 10.304688 53.234375 10.558594 C 53.40625 10.8125 53.550781 11.082031 53.667969 11.363281 C 53.789062 11.644531 53.875 11.933594 53.9375 12.234375 C 53.996094 12.53125 54.027344 12.835938 54.027344 13.140625 C 54.027344 13.53125 53.988281 13.917969 53.910156 14.300781 C 53.835938 14.683594 53.71875 15.054688 53.570312 15.417969 C 53.417969 15.777344 53.230469 16.121094 53.011719 16.445312 C 52.792969 16.769531 52.542969 17.070312 52.261719 17.347656 C 51.980469 17.625 51.675781 17.871094 51.347656 18.085938 C 51.019531 18.304688 50.671875 18.488281 50.304688 18.636719 C 49.941406 18.785156 49.5625 18.898438 49.175781 18.976562 C 48.785156 19.050781 48.394531 19.089844 48 19.089844 L 29.980469 19.089844 C 29.828125 19.09375 29.699219 19.148438 29.589844 19.253906 C 29.484375 19.359375 29.425781 19.488281 29.425781 19.636719 C 29.425781 19.789062 29.480469 19.917969 29.585938 20.023438 C 29.695312 20.132812 29.828125 20.183594 29.980469 20.183594 L 48 20.183594 C 48.46875 20.183594 48.933594 20.140625 49.390625 20.050781 C 49.851562 19.960938 50.296875 19.824219 50.730469 19.648438 C 51.164062 19.472656 51.574219 19.253906 51.964844 18.996094 C 52.355469 18.742188 52.714844 18.449219 53.046875 18.121094 C 53.378906 17.792969 53.675781 17.4375 53.933594 17.054688 C 54.195312 16.667969 54.414062 16.261719 54.59375 15.835938 C 54.773438 15.410156 54.910156 14.96875 55 14.515625 C 55.09375 14.0625 55.136719 13.601562 55.136719 13.140625 C 55.136719 12.761719 55.097656 12.390625 55.023438 12.019531 C 54.949219 11.652344 54.839844 11.292969 54.691406 10.945312 C 54.546875 10.597656 54.367188 10.265625 54.152344 9.953125 C 53.941406 9.640625 53.699219 9.351562 53.429688 9.082031 C 53.160156 8.816406 52.867188 8.578125 52.550781 8.371094 C 52.230469 8.160156 51.898438 7.984375 51.542969 7.839844 C 51.191406 7.695312 50.828125 7.585938 50.453125 7.511719 C 50.078125 7.4375 49.703125 7.398438 49.320312 7.398438 Z M 49.320312 7.398438 " fill-opacity="1" fill-rule="nonzero"/></g><g clip-path="url(#9c62f0b51d)"><path fill="#231f20" d="M 44.125 20.898438 L 32.410156 20.898438 C 32.257812 20.898438 32.128906 20.953125 32.023438 21.0625 C 31.914062 21.167969 31.859375 21.296875 31.855469 21.445312 C 31.855469 21.597656 31.910156 21.726562 32.019531 21.832031 C 32.128906 21.9375 32.257812 21.992188 32.410156 21.992188 L 44.125 21.992188 C 44.617188 21.996094 45.09375 22.089844 45.550781 22.277344 C 46.007812 22.464844 46.410156 22.730469 46.757812 23.074219 C 47.109375 23.417969 47.378906 23.816406 47.566406 24.265625 C 47.757812 24.71875 47.851562 25.1875 47.855469 25.675781 C 47.851562 26.050781 47.777344 26.410156 47.632812 26.757812 C 47.484375 27.101562 47.277344 27.410156 47.007812 27.671875 C 46.738281 27.9375 46.429688 28.144531 46.078125 28.285156 C 45.726562 28.429688 45.359375 28.5 44.980469 28.5 C 44.683594 28.5 44.402344 28.445312 44.128906 28.335938 C 43.855469 28.222656 43.617188 28.066406 43.410156 27.859375 C 43.199219 27.652344 43.039062 27.417969 42.925781 27.148438 C 42.816406 26.878906 42.757812 26.601562 42.757812 26.308594 C 42.761719 26.09375 42.800781 25.890625 42.886719 25.691406 C 42.972656 25.496094 43.089844 25.320312 43.242188 25.171875 C 43.398438 25.019531 43.574219 24.902344 43.777344 24.820312 C 43.976562 24.738281 44.183594 24.699219 44.402344 24.699219 L 44.523438 24.699219 C 44.332031 24.703125 44.144531 24.742188 43.96875 24.820312 C 43.792969 24.898438 43.636719 25.003906 43.503906 25.144531 C 43.371094 25.28125 43.269531 25.4375 43.199219 25.617188 C 43.128906 25.792969 43.097656 25.976562 43.101562 26.167969 C 43.101562 26.386719 43.144531 26.597656 43.230469 26.800781 C 43.316406 27.003906 43.4375 27.183594 43.59375 27.335938 C 43.75 27.492188 43.933594 27.613281 44.136719 27.695312 C 44.34375 27.78125 44.558594 27.820312 44.777344 27.820312 C 45.039062 27.824219 45.289062 27.773438 45.53125 27.679688 C 45.769531 27.582031 45.984375 27.441406 46.167969 27.261719 C 46.351562 27.078125 46.496094 26.871094 46.59375 26.632812 C 46.695312 26.398438 46.746094 26.148438 46.746094 25.894531 C 46.746094 25.589844 46.6875 25.300781 46.570312 25.019531 C 46.453125 24.742188 46.285156 24.496094 46.066406 24.28125 C 45.851562 24.066406 45.601562 23.902344 45.320312 23.789062 C 45.035156 23.671875 44.742188 23.613281 44.433594 23.613281 C 44.070312 23.613281 43.71875 23.683594 43.382812 23.820312 C 43.046875 23.957031 42.75 24.152344 42.492188 24.40625 C 42.234375 24.660156 42.035156 24.953125 41.894531 25.285156 C 41.753906 25.617188 41.683594 25.960938 41.679688 26.320312 C 41.679688 26.757812 41.765625 27.175781 41.933594 27.578125 C 42.105469 27.980469 42.34375 28.335938 42.65625 28.644531 C 42.96875 28.953125 43.328125 29.191406 43.738281 29.355469 C 44.144531 29.523438 44.570312 29.609375 45.011719 29.609375 C 45.273438 29.609375 45.53125 29.582031 45.789062 29.53125 C 46.042969 29.480469 46.292969 29.40625 46.535156 29.308594 C 46.777344 29.210938 47.003906 29.089844 47.222656 28.945312 C 47.441406 28.804688 47.640625 28.640625 47.828125 28.460938 C 48.011719 28.277344 48.175781 28.078125 48.324219 27.863281 C 48.46875 27.652344 48.589844 27.425781 48.691406 27.1875 C 48.792969 26.949219 48.867188 26.703125 48.917969 26.449219 C 48.972656 26.199219 48.996094 25.941406 48.996094 25.683594 C 48.996094 25.371094 48.964844 25.058594 48.902344 24.75 C 48.839844 24.4375 48.75 24.140625 48.625 23.847656 C 48.503906 23.558594 48.355469 23.28125 48.175781 23.019531 C 47.996094 22.757812 47.796875 22.515625 47.570312 22.292969 C 47.34375 22.070312 47.097656 21.871094 46.832031 21.695312 C 46.5625 21.523438 46.28125 21.375 45.988281 21.253906 C 45.691406 21.136719 45.386719 21.046875 45.074219 20.984375 C 44.761719 20.925781 44.445312 20.894531 44.125 20.898438 Z M 45.632812 25.914062 C 45.632812 26.144531 45.546875 26.34375 45.378906 26.503906 C 45.214844 26.667969 45.011719 26.746094 44.777344 26.746094 C 44.621094 26.746094 44.488281 26.695312 44.378906 26.585938 C 44.269531 26.476562 44.214844 26.34375 44.214844 26.1875 C 44.214844 26.09375 44.246094 26.015625 44.3125 25.949219 C 44.382812 25.882812 44.460938 25.847656 44.558594 25.847656 C 44.710938 25.847656 44.839844 25.796875 44.949219 25.6875 C 45.058594 25.582031 45.113281 25.453125 45.113281 25.300781 C 45.109375 25.0625 45 24.894531 44.777344 24.796875 C 45.03125 24.871094 45.234375 25.011719 45.394531 25.214844 C 45.550781 25.421875 45.632812 25.65625 45.632812 25.914062 Z M 45.632812 25.914062 " fill-opacity="1" fill-rule="nonzero"/></g><g clip-path="url(#8c7d3664ec)"><path fill="#231f20" d="M 44.011719 13.589844 C 44.011719 13.332031 43.988281 13.074219 43.9375 12.824219 C 43.886719 12.570312 43.808594 12.324219 43.710938 12.085938 C 43.609375 11.847656 43.488281 11.621094 43.339844 11.40625 C 43.195312 11.191406 43.03125 10.996094 42.84375 10.8125 C 42.660156 10.628906 42.457031 10.46875 42.242188 10.324219 C 42.023438 10.179688 41.792969 10.0625 41.550781 9.960938 C 41.308594 9.863281 41.0625 9.789062 40.804688 9.742188 C 40.546875 9.691406 40.289062 9.667969 40.027344 9.667969 C 39.585938 9.667969 39.160156 9.75 38.753906 9.917969 C 38.34375 10.085938 37.984375 10.320312 37.671875 10.628906 C 37.359375 10.9375 37.121094 11.292969 36.949219 11.695312 C 36.78125 12.097656 36.695312 12.519531 36.695312 12.953125 C 36.695312 13.3125 36.765625 13.660156 36.90625 13.992188 C 37.042969 14.324219 37.242188 14.617188 37.5 14.871094 C 37.757812 15.125 38.050781 15.324219 38.386719 15.460938 C 38.726562 15.601562 39.074219 15.667969 39.4375 15.671875 C 39.746094 15.671875 40.039062 15.613281 40.324219 15.496094 C 40.605469 15.382812 40.855469 15.21875 41.070312 15.003906 C 41.289062 14.789062 41.457031 14.542969 41.574219 14.265625 C 41.691406 13.984375 41.75 13.695312 41.75 13.390625 C 41.75 13.136719 41.699219 12.890625 41.597656 12.652344 C 41.5 12.417969 41.359375 12.210938 41.175781 12.027344 C 40.992188 11.847656 40.78125 11.707031 40.542969 11.609375 C 40.300781 11.511719 40.054688 11.464844 39.792969 11.464844 C 39.570312 11.460938 39.355469 11.503906 39.152344 11.585938 C 38.945312 11.671875 38.761719 11.789062 38.605469 11.945312 C 38.449219 12.101562 38.328125 12.28125 38.242188 12.484375 C 38.15625 12.6875 38.117188 12.898438 38.117188 13.117188 C 38.117188 13.308594 38.15625 13.488281 38.226562 13.664062 C 38.300781 13.835938 38.40625 13.992188 38.539062 14.125 C 38.675781 14.257812 38.832031 14.363281 39.007812 14.433594 C 39.183594 14.507812 39.371094 14.542969 39.5625 14.542969 C 39.507812 14.546875 39.457031 14.546875 39.40625 14.542969 C 39.1875 14.542969 38.980469 14.5 38.777344 14.417969 C 38.578125 14.335938 38.402344 14.21875 38.246094 14.066406 C 38.09375 13.914062 37.976562 13.738281 37.894531 13.539062 C 37.8125 13.34375 37.773438 13.136719 37.773438 12.921875 C 37.773438 12.628906 37.828125 12.351562 37.941406 12.082031 C 38.054688 11.8125 38.214844 11.578125 38.425781 11.371094 C 38.632812 11.167969 38.871094 11.007812 39.144531 10.898438 C 39.417969 10.785156 39.699219 10.730469 39.992188 10.730469 C 40.375 10.730469 40.742188 10.800781 41.09375 10.945312 C 41.445312 11.089844 41.753906 11.292969 42.023438 11.558594 C 42.292969 11.820312 42.5 12.128906 42.648438 12.472656 C 42.792969 12.820312 42.867188 13.179688 42.871094 13.554688 C 42.867188 14.042969 42.773438 14.511719 42.582031 14.960938 C 42.390625 15.410156 42.121094 15.808594 41.773438 16.152344 C 41.421875 16.496094 41.019531 16.761719 40.5625 16.949219 C 40.109375 17.132812 39.632812 17.226562 39.140625 17.226562 L 27.46875 17.226562 C 27.316406 17.226562 27.1875 17.28125 27.078125 17.386719 C 26.96875 17.496094 26.914062 17.625 26.914062 17.773438 C 26.914062 17.925781 26.96875 18.054688 27.078125 18.160156 C 27.1875 18.269531 27.316406 18.324219 27.46875 18.324219 L 39.171875 18.324219 C 39.488281 18.324219 39.800781 18.292969 40.113281 18.230469 C 40.421875 18.171875 40.722656 18.082031 41.015625 17.964844 C 41.308594 17.84375 41.585938 17.699219 41.847656 17.527344 C 42.109375 17.355469 42.355469 17.160156 42.578125 16.9375 C 42.804688 16.71875 43.003906 16.480469 43.183594 16.222656 C 43.359375 15.964844 43.507812 15.691406 43.632812 15.402344 C 43.753906 15.117188 43.847656 14.820312 43.914062 14.515625 C 43.976562 14.210938 44.011719 13.902344 44.011719 13.589844 Z M 39.570312 13.402344 C 39.480469 13.40625 39.398438 13.375 39.332031 13.308594 C 39.265625 13.246094 39.234375 13.167969 39.238281 13.074219 C 39.238281 12.921875 39.292969 12.789062 39.40625 12.679688 C 39.515625 12.570312 39.648438 12.515625 39.804688 12.515625 C 40.039062 12.515625 40.238281 12.597656 40.402344 12.757812 C 40.566406 12.921875 40.648438 13.117188 40.648438 13.347656 C 40.644531 13.605469 40.5625 13.832031 40.40625 14.035156 C 40.246094 14.238281 40.042969 14.375 39.792969 14.445312 C 40.023438 14.351562 40.136719 14.183594 40.128906 13.941406 C 40.125 13.796875 40.074219 13.675781 39.972656 13.570312 C 39.871094 13.46875 39.75 13.410156 39.605469 13.402344 Z M 39.570312 13.402344 " fill-opacity="1" fill-rule="nonzero"/></g><g clip-path="url(#43dbbb4e88)"><path fill="#231f20" d="M 155.207031 7.398438 C 154.894531 7.398438 154.585938 7.429688 154.277344 7.488281 C 153.972656 7.550781 153.671875 7.636719 153.382812 7.757812 C 153.09375 7.875 152.820312 8.019531 152.558594 8.191406 C 152.300781 8.363281 152.058594 8.558594 151.835938 8.773438 C 151.613281 8.992188 151.417969 9.230469 151.242188 9.488281 C 151.070312 9.742188 150.921875 10.015625 150.800781 10.300781 C 150.679688 10.585938 150.589844 10.878906 150.527344 11.183594 C 150.464844 11.484375 150.433594 11.789062 150.433594 12.097656 C 150.4375 12.613281 150.535156 13.109375 150.738281 13.582031 C 150.9375 14.054688 151.21875 14.476562 151.589844 14.839844 C 151.957031 15.203125 152.382812 15.484375 152.863281 15.679688 C 153.34375 15.878906 153.84375 15.976562 154.363281 15.976562 C 154.796875 15.976562 155.210938 15.894531 155.609375 15.734375 C 156.007812 15.570312 156.359375 15.339844 156.664062 15.039062 C 156.96875 14.738281 157.203125 14.390625 157.371094 13.996094 C 157.535156 13.601562 157.617188 13.195312 157.617188 12.769531 C 157.617188 12.414062 157.550781 12.070312 157.410156 11.746094 C 157.273438 11.417969 157.078125 11.128906 156.824219 10.878906 C 156.570312 10.625 156.277344 10.433594 155.945312 10.296875 C 155.613281 10.164062 155.269531 10.09375 154.910156 10.09375 C 154.605469 10.09375 154.316406 10.148438 154.035156 10.261719 C 153.753906 10.375 153.507812 10.539062 153.292969 10.75 C 153.078125 10.960938 152.914062 11.203125 152.796875 11.476562 C 152.679688 11.753906 152.621094 12.042969 152.621094 12.339844 C 152.621094 12.59375 152.671875 12.839844 152.769531 13.074219 C 152.867188 13.308594 153.007812 13.515625 153.191406 13.695312 C 153.371094 13.875 153.582031 14.015625 153.820312 14.113281 C 154.058594 14.210938 154.308594 14.257812 154.566406 14.257812 C 154.714844 14.253906 154.847656 14.199219 154.953125 14.09375 C 155.0625 13.988281 155.117188 13.859375 155.121094 13.710938 C 155.121094 13.558594 155.066406 13.429688 154.957031 13.324219 C 154.847656 13.214844 154.71875 13.164062 154.566406 13.164062 C 154.335938 13.160156 154.140625 13.078125 153.980469 12.917969 C 153.816406 12.757812 153.734375 12.566406 153.730469 12.339844 C 153.734375 12.1875 153.765625 12.039062 153.824219 11.898438 C 153.886719 11.757812 153.96875 11.632812 154.082031 11.527344 C 154.191406 11.417969 154.316406 11.335938 154.460938 11.277344 C 154.605469 11.21875 154.753906 11.191406 154.910156 11.191406 C 155.121094 11.191406 155.324219 11.234375 155.519531 11.3125 C 155.714844 11.394531 155.886719 11.507812 156.035156 11.65625 C 156.1875 11.804688 156.300781 11.972656 156.382812 12.164062 C 156.464844 12.359375 156.507812 12.558594 156.507812 12.769531 C 156.507812 13.046875 156.449219 13.316406 156.339844 13.574219 C 156.230469 13.832031 156.078125 14.0625 155.875 14.257812 C 155.675781 14.457031 155.445312 14.609375 155.183594 14.71875 C 154.921875 14.828125 154.648438 14.878906 154.363281 14.882812 C 153.992188 14.882812 153.632812 14.8125 153.285156 14.671875 C 152.941406 14.527344 152.636719 14.328125 152.371094 14.066406 C 152.105469 13.804688 151.902344 13.503906 151.757812 13.164062 C 151.617188 12.824219 151.542969 12.46875 151.542969 12.097656 C 151.546875 11.621094 151.640625 11.160156 151.828125 10.71875 C 152.011719 10.277344 152.277344 9.886719 152.621094 9.550781 C 152.964844 9.210938 153.359375 8.953125 153.808594 8.769531 C 154.257812 8.585938 154.722656 8.496094 155.207031 8.496094 C 155.519531 8.496094 155.824219 8.523438 156.125 8.585938 C 156.429688 8.644531 156.722656 8.730469 157.011719 8.847656 C 157.296875 8.964844 157.566406 9.109375 157.824219 9.277344 C 158.082031 9.445312 158.320312 9.640625 158.539062 9.855469 C 158.753906 10.070312 158.949219 10.304688 159.121094 10.558594 C 159.292969 10.8125 159.4375 11.082031 159.558594 11.363281 C 159.675781 11.644531 159.765625 11.933594 159.824219 12.234375 C 159.886719 12.53125 159.914062 12.835938 159.914062 13.140625 C 159.914062 13.53125 159.878906 13.917969 159.800781 14.300781 C 159.722656 14.683594 159.609375 15.054688 159.457031 15.417969 C 159.304688 15.777344 159.121094 16.121094 158.898438 16.445312 C 158.679688 16.769531 158.429688 17.070312 158.148438 17.347656 C 157.871094 17.625 157.566406 17.871094 157.238281 18.085938 C 156.90625 18.304688 156.558594 18.488281 156.195312 18.636719 C 155.828125 18.785156 155.453125 18.898438 155.0625 18.976562 C 154.675781 19.050781 154.285156 19.089844 153.886719 19.089844 L 135.867188 19.089844 C 135.714844 19.09375 135.585938 19.148438 135.480469 19.253906 C 135.371094 19.359375 135.316406 19.488281 135.3125 19.636719 C 135.3125 19.789062 135.367188 19.917969 135.476562 20.023438 C 135.585938 20.132812 135.714844 20.183594 135.867188 20.183594 L 153.886719 20.183594 C 154.355469 20.183594 154.820312 20.140625 155.28125 20.050781 C 155.738281 19.960938 156.1875 19.824219 156.621094 19.648438 C 157.050781 19.472656 157.464844 19.253906 157.851562 18.996094 C 158.242188 18.742188 158.605469 18.449219 158.933594 18.121094 C 159.265625 17.792969 159.5625 17.4375 159.824219 17.054688 C 160.082031 16.667969 160.304688 16.261719 160.484375 15.835938 C 160.664062 15.410156 160.796875 14.96875 160.890625 14.515625 C 160.980469 14.0625 161.027344 13.601562 161.027344 13.140625 C 161.027344 12.761719 160.988281 12.390625 160.914062 12.019531 C 160.835938 11.652344 160.726562 11.292969 160.582031 10.945312 C 160.433594 10.597656 160.253906 10.265625 160.042969 9.953125 C 159.828125 9.640625 159.589844 9.351562 159.320312 9.082031 C 159.050781 8.816406 158.753906 8.578125 158.4375 8.371094 C 158.121094 8.160156 157.785156 7.984375 157.433594 7.839844 C 157.082031 7.695312 156.71875 7.585938 156.34375 7.511719 C 155.96875 7.4375 155.589844 7.398438 155.207031 7.398438 Z M 155.207031 7.398438 " fill-opacity="1" fill-rule="nonzero"/></g><g clip-path="url(#11451d48b7)"><path fill="#231f20" d="M 150.011719 20.898438 L 138.300781 20.898438 C 138.148438 20.898438 138.019531 20.953125 137.910156 21.0625 C 137.800781 21.167969 137.746094 21.296875 137.746094 21.445312 C 137.746094 21.597656 137.796875 21.726562 137.90625 21.832031 C 138.015625 21.9375 138.144531 21.992188 138.300781 21.992188 L 150.011719 21.992188 C 150.507812 21.996094 150.980469 22.089844 151.4375 22.277344 C 151.894531 22.464844 152.296875 22.730469 152.648438 23.074219 C 152.996094 23.417969 153.265625 23.816406 153.457031 24.265625 C 153.644531 24.71875 153.742188 25.1875 153.742188 25.675781 C 153.742188 26.050781 153.667969 26.410156 153.519531 26.757812 C 153.375 27.101562 153.167969 27.410156 152.898438 27.671875 C 152.628906 27.9375 152.316406 28.144531 151.964844 28.285156 C 151.613281 28.429688 151.246094 28.5 150.867188 28.5 C 150.574219 28.5 150.289062 28.445312 150.019531 28.335938 C 149.746094 28.222656 149.503906 28.066406 149.296875 27.859375 C 149.089844 27.652344 148.929688 27.417969 148.816406 27.148438 C 148.703125 26.878906 148.648438 26.601562 148.648438 26.308594 C 148.648438 26.09375 148.691406 25.890625 148.773438 25.691406 C 148.859375 25.496094 148.976562 25.320312 149.132812 25.171875 C 149.285156 25.019531 149.464844 24.902344 149.664062 24.820312 C 149.863281 24.738281 150.074219 24.699219 150.289062 24.699219 L 150.414062 24.699219 C 150.21875 24.703125 150.035156 24.742188 149.859375 24.820312 C 149.683594 24.898438 149.527344 25.003906 149.394531 25.144531 C 149.261719 25.28125 149.160156 25.4375 149.089844 25.617188 C 149.019531 25.792969 148.988281 25.976562 148.992188 26.167969 C 148.992188 26.386719 149.035156 26.597656 149.117188 26.800781 C 149.203125 27.003906 149.324219 27.183594 149.480469 27.335938 C 149.640625 27.492188 149.820312 27.613281 150.027344 27.695312 C 150.230469 27.78125 150.445312 27.820312 150.667969 27.820312 C 150.929688 27.824219 151.179688 27.773438 151.417969 27.679688 C 151.660156 27.582031 151.871094 27.441406 152.054688 27.261719 C 152.242188 27.078125 152.382812 26.871094 152.484375 26.632812 C 152.582031 26.398438 152.632812 26.148438 152.632812 25.894531 C 152.632812 25.589844 152.574219 25.300781 152.457031 25.019531 C 152.339844 24.742188 152.171875 24.496094 151.957031 24.28125 C 151.738281 24.066406 151.488281 23.902344 151.207031 23.789062 C 150.925781 23.671875 150.628906 23.613281 150.324219 23.613281 C 149.960938 23.613281 149.609375 23.683594 149.273438 23.820312 C 148.9375 23.957031 148.636719 24.152344 148.378906 24.40625 C 148.121094 24.660156 147.921875 24.953125 147.78125 25.285156 C 147.640625 25.617188 147.570312 25.960938 147.570312 26.320312 C 147.570312 26.757812 147.65625 27.175781 147.824219 27.578125 C 147.992188 27.980469 148.234375 28.335938 148.546875 28.644531 C 148.859375 28.953125 149.21875 29.191406 149.625 29.355469 C 150.035156 29.523438 150.460938 29.609375 150.902344 29.609375 C 151.160156 29.609375 151.421875 29.582031 151.675781 29.53125 C 151.933594 29.480469 152.183594 29.40625 152.421875 29.308594 C 152.664062 29.210938 152.894531 29.089844 153.113281 28.945312 C 153.328125 28.804688 153.53125 28.640625 153.714844 28.460938 C 153.898438 28.277344 154.066406 28.078125 154.210938 27.863281 C 154.355469 27.652344 154.480469 27.425781 154.578125 27.1875 C 154.679688 26.949219 154.757812 26.703125 154.808594 26.449219 C 154.859375 26.199219 154.886719 25.941406 154.886719 25.683594 C 154.886719 25.371094 154.855469 25.058594 154.792969 24.75 C 154.730469 24.4375 154.636719 24.140625 154.515625 23.847656 C 154.390625 23.558594 154.242188 23.28125 154.0625 23.019531 C 153.886719 22.757812 153.683594 22.515625 153.457031 22.292969 C 153.230469 22.070312 152.984375 21.871094 152.71875 21.695312 C 152.453125 21.523438 152.171875 21.375 151.875 21.253906 C 151.582031 21.136719 151.277344 21.046875 150.960938 20.984375 C 150.648438 20.925781 150.332031 20.894531 150.011719 20.898438 Z M 151.523438 25.914062 C 151.519531 26.144531 151.433594 26.34375 151.269531 26.503906 C 151.101562 26.667969 150.902344 26.746094 150.667969 26.746094 C 150.511719 26.746094 150.378906 26.695312 150.265625 26.585938 C 150.15625 26.476562 150.101562 26.34375 150.101562 26.1875 C 150.101562 26.09375 150.136719 26.015625 150.203125 25.949219 C 150.269531 25.882812 150.351562 25.847656 150.445312 25.847656 C 150.597656 25.847656 150.730469 25.796875 150.839844 25.6875 C 150.945312 25.582031 151 25.453125 151 25.300781 C 151 25.0625 150.886719 24.894531 150.667969 24.796875 C 150.917969 24.871094 151.125 25.011719 151.28125 25.214844 C 151.441406 25.421875 151.519531 25.65625 151.523438 25.914062 Z M 151.523438 25.914062 " fill-opacity="1" fill-rule="nonzero"/></g><g clip-path="url(#ce85fe9e6c)"><path fill="#231f20" d="M 149.902344 13.589844 C 149.902344 13.332031 149.875 13.074219 149.824219 12.824219 C 149.773438 12.570312 149.699219 12.324219 149.597656 12.085938 C 149.496094 11.847656 149.375 11.621094 149.230469 11.40625 C 149.082031 11.191406 148.917969 10.996094 148.734375 10.8125 C 148.546875 10.628906 148.347656 10.46875 148.128906 10.324219 C 147.910156 10.179688 147.683594 10.0625 147.441406 9.960938 C 147.199219 9.863281 146.949219 9.789062 146.691406 9.742188 C 146.4375 9.691406 146.175781 9.667969 145.914062 9.667969 C 145.472656 9.667969 145.050781 9.75 144.640625 9.917969 C 144.234375 10.085938 143.871094 10.320312 143.5625 10.628906 C 143.25 10.9375 143.007812 11.292969 142.839844 11.695312 C 142.667969 12.097656 142.585938 12.519531 142.585938 12.953125 C 142.585938 13.3125 142.65625 13.660156 142.792969 13.992188 C 142.933594 14.324219 143.128906 14.617188 143.386719 14.871094 C 143.644531 15.125 143.941406 15.324219 144.277344 15.460938 C 144.613281 15.601562 144.964844 15.667969 145.328125 15.671875 C 145.632812 15.671875 145.929688 15.613281 146.210938 15.496094 C 146.492188 15.382812 146.742188 15.21875 146.960938 15.003906 C 147.175781 14.789062 147.34375 14.542969 147.460938 14.265625 C 147.578125 13.984375 147.636719 13.695312 147.636719 13.390625 C 147.636719 13.136719 147.585938 12.890625 147.488281 12.652344 C 147.390625 12.417969 147.246094 12.210938 147.0625 12.027344 C 146.882812 11.847656 146.667969 11.707031 146.429688 11.609375 C 146.191406 11.511719 145.941406 11.464844 145.683594 11.464844 C 145.460938 11.460938 145.246094 11.503906 145.039062 11.585938 C 144.832031 11.671875 144.652344 11.789062 144.492188 11.945312 C 144.335938 12.101562 144.214844 12.28125 144.132812 12.484375 C 144.046875 12.6875 144.003906 12.898438 144.007812 13.117188 C 144.007812 13.308594 144.042969 13.488281 144.117188 13.664062 C 144.1875 13.835938 144.292969 13.992188 144.429688 14.125 C 144.5625 14.257812 144.71875 14.363281 144.898438 14.433594 C 145.074219 14.507812 145.257812 14.542969 145.449219 14.542969 C 145.398438 14.546875 145.347656 14.546875 145.292969 14.542969 C 145.078125 14.542969 144.867188 14.5 144.667969 14.417969 C 144.464844 14.335938 144.289062 14.21875 144.136719 14.066406 C 143.984375 13.914062 143.867188 13.738281 143.78125 13.539062 C 143.699219 13.34375 143.660156 13.136719 143.660156 12.921875 C 143.660156 12.628906 143.71875 12.351562 143.832031 12.082031 C 143.945312 11.8125 144.105469 11.578125 144.3125 11.371094 C 144.519531 11.167969 144.761719 11.007812 145.03125 10.898438 C 145.304688 10.785156 145.589844 10.730469 145.882812 10.730469 C 146.261719 10.730469 146.628906 10.800781 146.980469 10.945312 C 147.332031 11.089844 147.640625 11.292969 147.910156 11.558594 C 148.179688 11.820312 148.390625 12.128906 148.535156 12.472656 C 148.683594 12.820312 148.757812 13.179688 148.757812 13.554688 C 148.757812 14.042969 148.660156 14.511719 148.472656 14.960938 C 148.28125 15.410156 148.011719 15.808594 147.660156 16.152344 C 147.3125 16.496094 146.910156 16.761719 146.453125 16.949219 C 145.996094 17.132812 145.519531 17.226562 145.027344 17.226562 L 133.359375 17.226562 C 133.207031 17.226562 133.074219 17.28125 132.964844 17.386719 C 132.859375 17.496094 132.804688 17.625 132.804688 17.773438 C 132.804688 17.925781 132.859375 18.054688 132.964844 18.160156 C 133.074219 18.269531 133.207031 18.324219 133.359375 18.324219 L 145.0625 18.324219 C 145.378906 18.324219 145.691406 18.292969 146 18.230469 C 146.308594 18.171875 146.609375 18.082031 146.902344 17.964844 C 147.195312 17.84375 147.472656 17.699219 147.738281 17.527344 C 148 17.355469 148.242188 17.160156 148.46875 16.9375 C 148.691406 16.71875 148.894531 16.480469 149.070312 16.222656 C 149.246094 15.964844 149.398438 15.691406 149.519531 15.402344 C 149.644531 15.117188 149.738281 14.820312 149.800781 14.515625 C 149.863281 14.210938 149.898438 13.902344 149.902344 13.589844 Z M 145.460938 13.402344 C 145.367188 13.40625 145.289062 13.375 145.222656 13.308594 C 145.15625 13.246094 145.125 13.167969 145.128906 13.074219 C 145.128906 12.921875 145.183594 12.789062 145.292969 12.679688 C 145.402344 12.570312 145.539062 12.515625 145.695312 12.515625 C 145.925781 12.515625 146.125 12.597656 146.289062 12.757812 C 146.457031 12.921875 146.539062 13.117188 146.539062 13.347656 C 146.53125 13.605469 146.453125 13.832031 146.292969 14.035156 C 146.136719 14.238281 145.933594 14.375 145.683594 14.445312 C 145.914062 14.351562 146.023438 14.183594 146.015625 13.941406 C 146.011719 13.796875 145.960938 13.675781 145.863281 13.570312 C 145.761719 13.46875 145.636719 13.410156 145.492188 13.402344 Z M 145.460938 13.402344 " fill-opacity="1" fill-rule="nonzero"/></g></svg>