<svg xmlns="http://www.w3.org/2000/svg" xmlns:xlink="http://www.w3.org/1999/xlink" width="140" zoomAndPan="magnify"
    viewBox="0 0 104.88 30.000001" height="40" preserveAspectRatio="xMidYMid meet" version="1.0">
    <defs>
        <clipPath id="83c9eb27aa">
            <path
                d="M 31.535156 6.859375 L 41.699219 6.859375 L 41.699219 17.019531 L 31.535156 17.019531 Z M 31.535156 6.859375 "
                clip-rule="nonzero" />
        </clipPath>
        <clipPath id="d51a434596">
            <path d="M 5 4.488281 L 16.28125 4.488281 L 16.28125 11 L 5 11 Z M 5 4.488281 " clip-rule="nonzero" />
        </clipPath>
        <clipPath id="04bc8a97fd">
            <path d="M 6 10 L 14 10 L 14 14.648438 L 6 14.648438 Z M 6 10 " clip-rule="nonzero" />
        </clipPath>
        <clipPath id="7e4727e883">
            <path d="M 3.945312 5 L 12 5 L 12 10 L 3.945312 10 Z M 3.945312 5 " clip-rule="nonzero" />
        </clipPath>
        <clipPath id="347f2497f3">
            <path
                d="M 30.773438 2.273438 L 74.367188 2.273438 L 74.367188 26.761719 L 30.773438 26.761719 Z M 30.773438 2.273438 "
                clip-rule="nonzero" />
        </clipPath>
        <clipPath id="5f7322410d">
            <path d="M 30.5 2.273438 L 74.097656 2.273438 L 74.097656 26.761719 L 30.5 26.761719 Z M 30.5 2.273438 "
                clip-rule="nonzero" />
        </clipPath>
        <clipPath id="70f6aeef4e">
            <path
                d="M 30.773438 2.273438 L 74.367188 2.273438 L 74.367188 26.761719 L 30.773438 26.761719 Z M 30.773438 2.273438 "
                clip-rule="nonzero" />
        </clipPath>
        <clipPath id="875e6858a1">
            <path d="M 12 14.308594 L 23.871094 14.308594 L 23.871094 21 L 12 21 Z M 12 14.308594 "
                clip-rule="nonzero" />
        </clipPath>
        <clipPath id="3161278821">
            <path d="M 13 20 L 22 20 L 22 24.46875 L 13 24.46875 Z M 13 20 " clip-rule="nonzero" />
        </clipPath>
        <clipPath id="3f8b2f5bbc">
            <path d="M 11.535156 15 L 20 15 L 20 20 L 11.535156 20 Z M 11.535156 15 " clip-rule="nonzero" />
        </clipPath>
        <clipPath id="8568114677">
            <path d="M 18 4.695312 L 30.011719 4.695312 L 30.011719 11 L 18 11 Z M 18 4.695312 " clip-rule="nonzero" />
        </clipPath>
        <clipPath id="1498875f81">
            <path d="M 19 10 L 28 10 L 28 14.855469 L 19 14.855469 Z M 19 10 " clip-rule="nonzero" />
        </clipPath>
        <clipPath id="de3321bba2">
            <path d="M 17.671875 5 L 26 5 L 26 10 L 17.671875 10 Z M 17.671875 5 " clip-rule="nonzero" />
        </clipPath>
        <clipPath id="161e1594d4">
            <path d="M 73 4.488281 L 84.609375 4.488281 L 84.609375 11 L 73 11 Z M 73 4.488281 " clip-rule="nonzero" />
        </clipPath>
        <clipPath id="40739ae8b9">
            <path d="M 74 10 L 82 10 L 82 14.648438 L 74 14.648438 Z M 74 10 " clip-rule="nonzero" />
        </clipPath>
        <clipPath id="084bbb1e0e">
            <path d="M 72.273438 5 L 80 5 L 80 10 L 72.273438 10 Z M 72.273438 5 " clip-rule="nonzero" />
        </clipPath>
        <clipPath id="e68e669f3f">
            <path d="M 80 14.308594 L 92.199219 14.308594 L 92.199219 21 L 80 21 Z M 80 14.308594 "
                clip-rule="nonzero" />
        </clipPath>
        <clipPath id="85ab57002e">
            <path d="M 82 20 L 90 20 L 90 24.46875 L 82 24.46875 Z M 82 20 " clip-rule="nonzero" />
        </clipPath>
        <clipPath id="4a3ab894e4">
            <path d="M 79.863281 15 L 88 15 L 88 20 L 79.863281 20 Z M 79.863281 15 " clip-rule="nonzero" />
        </clipPath>
        <clipPath id="23754497b7">
            <path d="M 87 4.695312 L 98.339844 4.695312 L 98.339844 11 L 87 11 Z M 87 4.695312 " clip-rule="nonzero" />
        </clipPath>
        <clipPath id="a3620fa226">
            <path d="M 88 10 L 96 10 L 96 14.855469 L 88 14.855469 Z M 88 10 " clip-rule="nonzero" />
        </clipPath>
        <clipPath id="8e46286912">
            <path d="M 86 5 L 94 5 L 94 10 L 86 10 Z M 86 5 " clip-rule="nonzero" />
        </clipPath>
    </defs>
    <g clip-path="url(#d51a434596)">
        <path fill="#2b70e4"
            d="M 13.742188 4.476562 C 13.464844 4.476562 13.199219 4.527344 12.945312 4.636719 C 12.6875 4.746094 12.464844 4.902344 12.265625 5.101562 C 12.070312 5.304688 11.921875 5.535156 11.8125 5.800781 C 11.707031 6.0625 11.652344 6.335938 11.652344 6.621094 C 11.652344 6.855469 11.699219 7.082031 11.785156 7.296875 C 11.875 7.515625 11.996094 7.707031 12.160156 7.871094 C 12.320312 8.039062 12.503906 8.167969 12.714844 8.257812 C 12.925781 8.347656 13.144531 8.390625 13.375 8.394531 C 13.5625 8.394531 13.742188 8.355469 13.917969 8.28125 C 14.09375 8.207031 14.246094 8.101562 14.378906 7.964844 C 14.511719 7.824219 14.617188 7.667969 14.6875 7.488281 C 14.761719 7.308594 14.796875 7.121094 14.796875 6.925781 C 14.796875 6.765625 14.765625 6.609375 14.707031 6.460938 C 14.644531 6.308594 14.558594 6.179688 14.449219 6.0625 C 14.339844 5.949219 14.210938 5.859375 14.066406 5.796875 C 13.917969 5.738281 13.769531 5.707031 13.609375 5.707031 C 13.480469 5.707031 13.351562 5.730469 13.230469 5.78125 C 13.105469 5.835938 12.996094 5.910156 12.902344 6.003906 C 12.808594 6.101562 12.738281 6.210938 12.6875 6.339844 C 12.636719 6.464844 12.609375 6.59375 12.609375 6.730469 C 12.609375 6.972656 12.695312 7.179688 12.859375 7.351562 C 13.027344 7.523438 13.226562 7.605469 13.460938 7.605469 C 13.621094 7.605469 13.699219 7.519531 13.703125 7.355469 C 13.703125 7.289062 13.679688 7.230469 13.632812 7.179688 C 13.585938 7.132812 13.527344 7.105469 13.460938 7.105469 C 13.359375 7.105469 13.273438 7.070312 13.203125 6.996094 C 13.132812 6.921875 13.097656 6.835938 13.097656 6.730469 C 13.097656 6.585938 13.148438 6.460938 13.25 6.359375 C 13.347656 6.257812 13.46875 6.207031 13.609375 6.207031 C 13.804688 6.207031 13.96875 6.277344 14.105469 6.417969 C 14.242188 6.558594 14.308594 6.726562 14.3125 6.925781 C 14.308594 7.191406 14.21875 7.421875 14.035156 7.609375 C 13.851562 7.796875 13.632812 7.890625 13.375 7.894531 C 13.210938 7.894531 13.050781 7.859375 12.902344 7.796875 C 12.75 7.730469 12.617188 7.640625 12.5 7.519531 C 12.386719 7.402344 12.296875 7.265625 12.234375 7.109375 C 12.171875 6.953125 12.140625 6.789062 12.140625 6.621094 C 12.140625 6.402344 12.179688 6.191406 12.261719 5.992188 C 12.34375 5.789062 12.460938 5.613281 12.609375 5.457031 C 12.761719 5.304688 12.933594 5.183594 13.128906 5.101562 C 13.324219 5.015625 13.53125 4.976562 13.742188 4.976562 C 14.015625 4.976562 14.277344 5.027344 14.53125 5.136719 C 14.78125 5.246094 15.003906 5.398438 15.199219 5.597656 C 15.390625 5.796875 15.539062 6.023438 15.644531 6.285156 C 15.75 6.546875 15.800781 6.816406 15.800781 7.097656 C 15.800781 7.457031 15.734375 7.804688 15.601562 8.136719 C 15.46875 8.46875 15.277344 8.761719 15.03125 9.019531 C 14.78125 9.273438 14.496094 9.46875 14.171875 9.605469 C 13.851562 9.746094 13.515625 9.8125 13.164062 9.8125 L 5.28125 9.8125 C 5.121094 9.816406 5.039062 9.902344 5.039062 10.0625 C 5.039062 10.132812 5.0625 10.191406 5.109375 10.242188 C 5.15625 10.289062 5.214844 10.316406 5.28125 10.316406 L 13.164062 10.316406 C 13.578125 10.316406 13.976562 10.234375 14.359375 10.070312 C 14.742188 9.90625 15.082031 9.675781 15.371094 9.371094 C 15.664062 9.070312 15.890625 8.722656 16.050781 8.328125 C 16.207031 7.933594 16.289062 7.523438 16.289062 7.097656 C 16.289062 6.75 16.222656 6.414062 16.09375 6.09375 C 15.964844 5.773438 15.78125 5.488281 15.539062 5.246094 C 15.300781 5 15.027344 4.808594 14.714844 4.675781 C 14.402344 4.542969 14.078125 4.476562 13.742188 4.476562 Z M 13.742188 4.476562 "
            fill-opacity="1" fill-rule="nonzero" />
    </g>
    <g clip-path="url(#04bc8a97fd)">
        <path fill="#2b70e4"
            d="M 11.46875 10.640625 L 6.34375 10.640625 C 6.183594 10.644531 6.105469 10.726562 6.101562 10.890625 C 6.101562 10.960938 6.125 11.019531 6.171875 11.066406 C 6.21875 11.117188 6.277344 11.140625 6.34375 11.140625 L 11.46875 11.140625 C 11.683594 11.140625 11.894531 11.183594 12.09375 11.269531 C 12.292969 11.355469 12.46875 11.476562 12.621094 11.632812 C 12.773438 11.792969 12.894531 11.972656 12.976562 12.179688 C 13.058594 12.382812 13.101562 12.597656 13.101562 12.820312 C 13.101562 12.992188 13.066406 13.15625 13.003906 13.316406 C 12.941406 13.472656 12.847656 13.613281 12.730469 13.734375 C 12.613281 13.855469 12.476562 13.949219 12.324219 14.015625 C 12.167969 14.078125 12.007812 14.113281 11.84375 14.113281 C 11.714844 14.113281 11.589844 14.085938 11.472656 14.035156 C 11.351562 13.984375 11.246094 13.914062 11.15625 13.820312 C 11.066406 13.726562 10.996094 13.617188 10.945312 13.496094 C 10.894531 13.371094 10.871094 13.246094 10.871094 13.113281 C 10.871094 12.910156 10.945312 12.734375 11.082031 12.589844 C 11.222656 12.449219 11.394531 12.375 11.589844 12.375 L 11.644531 12.375 C 11.46875 12.378906 11.320312 12.449219 11.199219 12.578125 C 11.078125 12.710938 11.019531 12.867188 11.023438 13.046875 C 11.023438 13.253906 11.09375 13.433594 11.238281 13.582031 C 11.378906 13.730469 11.554688 13.800781 11.753906 13.800781 C 11.992188 13.804688 12.195312 13.71875 12.363281 13.546875 C 12.53125 13.375 12.617188 13.164062 12.617188 12.921875 C 12.617188 12.785156 12.589844 12.652344 12.539062 12.523438 C 12.488281 12.394531 12.414062 12.285156 12.320312 12.1875 C 12.226562 12.089844 12.117188 12.011719 11.992188 11.960938 C 11.867188 11.90625 11.738281 11.882812 11.605469 11.882812 C 11.445312 11.882812 11.292969 11.914062 11.144531 11.976562 C 10.996094 12.039062 10.867188 12.125 10.753906 12.242188 C 10.640625 12.359375 10.554688 12.492188 10.492188 12.644531 C 10.433594 12.796875 10.402344 12.953125 10.398438 13.117188 C 10.398438 13.316406 10.4375 13.507812 10.511719 13.691406 C 10.585938 13.875 10.691406 14.039062 10.828125 14.179688 C 10.964844 14.320312 11.121094 14.425781 11.300781 14.503906 C 11.476562 14.578125 11.664062 14.617188 11.859375 14.617188 C 12.089844 14.617188 12.308594 14.574219 12.523438 14.480469 C 12.738281 14.390625 12.925781 14.261719 13.089844 14.09375 C 13.253906 13.925781 13.378906 13.730469 13.46875 13.511719 C 13.554688 13.292969 13.601562 13.0625 13.601562 12.828125 C 13.601562 12.535156 13.546875 12.257812 13.4375 11.988281 C 13.332031 11.71875 13.175781 11.480469 12.976562 11.277344 C 12.777344 11.070312 12.546875 10.914062 12.285156 10.804688 C 12.023438 10.691406 11.75 10.636719 11.46875 10.640625 Z M 12.128906 12.933594 C 12.128906 13.039062 12.089844 13.125 12.019531 13.199219 C 11.945312 13.273438 11.859375 13.3125 11.753906 13.3125 C 11.6875 13.3125 11.628906 13.289062 11.582031 13.238281 C 11.53125 13.1875 11.507812 13.128906 11.507812 13.058594 C 11.507812 12.953125 11.558594 12.902344 11.660156 12.902344 C 11.726562 12.902344 11.78125 12.878906 11.832031 12.828125 C 11.878906 12.78125 11.902344 12.71875 11.902344 12.652344 C 11.898438 12.542969 11.851562 12.464844 11.753906 12.421875 C 12.003906 12.496094 12.128906 12.664062 12.128906 12.933594 Z M 12.128906 12.933594 "
            fill-opacity="1" fill-rule="nonzero" />
    </g>
    <g clip-path="url(#7e4727e883)">
        <path fill="#2b70e4"
            d="M 11.421875 7.300781 C 11.421875 7.0625 11.375 6.835938 11.289062 6.617188 C 11.199219 6.394531 11.074219 6.203125 10.910156 6.035156 C 10.746094 5.867188 10.558594 5.734375 10.34375 5.644531 C 10.128906 5.554688 9.90625 5.511719 9.675781 5.511719 C 9.484375 5.511719 9.296875 5.546875 9.117188 5.625 C 8.941406 5.699219 8.78125 5.808594 8.644531 5.949219 C 8.507812 6.089844 8.402344 6.253906 8.332031 6.4375 C 8.257812 6.621094 8.21875 6.8125 8.21875 7.011719 C 8.21875 7.175781 8.25 7.332031 8.308594 7.484375 C 8.371094 7.636719 8.457031 7.769531 8.570312 7.886719 C 8.683594 8.003906 8.8125 8.09375 8.960938 8.15625 C 9.105469 8.21875 9.257812 8.253906 9.417969 8.253906 C 9.554688 8.253906 9.683594 8.226562 9.804688 8.171875 C 9.929688 8.121094 10.039062 8.046875 10.132812 7.949219 C 10.226562 7.851562 10.300781 7.738281 10.351562 7.609375 C 10.402344 7.484375 10.429688 7.351562 10.429688 7.210938 C 10.429688 6.96875 10.347656 6.761719 10.179688 6.589844 C 10.011719 6.417969 9.8125 6.332031 9.574219 6.332031 C 9.371094 6.328125 9.199219 6.402344 9.054688 6.550781 C 8.910156 6.699219 8.839844 6.878906 8.839844 7.085938 C 8.839844 7.265625 8.902344 7.417969 9.027344 7.546875 C 9.148438 7.675781 9.296875 7.738281 9.472656 7.738281 C 9.449219 7.738281 9.425781 7.738281 9.40625 7.738281 C 9.207031 7.738281 9.039062 7.664062 8.898438 7.519531 C 8.757812 7.375 8.6875 7.199219 8.691406 6.996094 C 8.691406 6.863281 8.714844 6.738281 8.765625 6.613281 C 8.8125 6.492188 8.882812 6.382812 8.976562 6.289062 C 9.066406 6.195312 9.171875 6.121094 9.289062 6.070312 C 9.410156 6.019531 9.53125 5.996094 9.660156 5.996094 C 9.828125 5.996094 9.988281 6.027344 10.140625 6.09375 C 10.296875 6.160156 10.433594 6.253906 10.550781 6.375 C 10.667969 6.496094 10.757812 6.632812 10.824219 6.792969 C 10.886719 6.949219 10.917969 7.117188 10.921875 7.285156 C 10.917969 7.507812 10.878906 7.722656 10.792969 7.929688 C 10.710938 8.132812 10.59375 8.316406 10.441406 8.472656 C 10.289062 8.628906 10.109375 8.75 9.910156 8.835938 C 9.710938 8.921875 9.503906 8.964844 9.289062 8.964844 L 4.183594 8.964844 C 4.117188 8.964844 4.058594 8.988281 4.011719 9.035156 C 3.964844 9.085938 3.941406 9.144531 3.941406 9.214844 C 3.941406 9.28125 3.964844 9.339844 4.011719 9.390625 C 4.058594 9.441406 4.117188 9.464844 4.183594 9.464844 L 9.300781 9.464844 C 9.582031 9.464844 9.851562 9.410156 10.109375 9.300781 C 10.367188 9.191406 10.59375 9.035156 10.792969 8.832031 C 10.992188 8.628906 11.144531 8.394531 11.253906 8.132812 C 11.363281 7.867188 11.417969 7.589844 11.421875 7.300781 Z M 9.476562 7.21875 C 9.375 7.21875 9.328125 7.171875 9.332031 7.066406 C 9.332031 6.996094 9.355469 6.9375 9.402344 6.886719 C 9.453125 6.835938 9.511719 6.8125 9.578125 6.8125 C 9.679688 6.8125 9.769531 6.847656 9.839844 6.921875 C 9.914062 6.996094 9.949219 7.085938 9.949219 7.191406 C 9.945312 7.453125 9.820312 7.621094 9.574219 7.691406 C 9.675781 7.652344 9.722656 7.574219 9.71875 7.460938 C 9.71875 7.308594 9.640625 7.226562 9.492188 7.21875 Z M 9.476562 7.21875 "
            fill-opacity="1" fill-rule="nonzero" />
    </g>
    <g clip-path="url(#347f2497f3)">
        <path fill="#000000"
            d="M 39.492188 9.234375 C 44.28125 9.234375 48.183594 13.105469 48.238281 17.878906 L 49.460938 17.878906 L 45.613281 4.179688 L 43.546875 4.179688 L 43.546875 2.683594 C 43.546875 2.480469 43.710938 2.316406 43.910156 2.316406 C 44.113281 2.316406 44.277344 2.480469 44.277344 2.683594 L 44.277344 3.445312 L 47.871094 3.445312 C 48.074219 3.445312 48.238281 3.609375 48.238281 3.8125 C 48.238281 4.015625 48.074219 4.179688 47.871094 4.179688 L 46.375 4.179688 L 46.941406 6.191406 L 55.664062 6.191406 C 55.867188 6.191406 56.03125 6.355469 56.03125 6.558594 C 56.03125 6.757812 55.867188 6.921875 55.664062 6.921875 L 54.09375 6.921875 C 54.710938 9.050781 55.554688 10.90625 56.605469 12.464844 L 59.121094 4.179688 L 57.703125 4.179688 C 57.503906 4.179688 57.339844 4.015625 57.339844 3.8125 C 57.339844 3.613281 57.503906 3.449219 57.703125 3.449219 L 59.613281 3.449219 C 59.613281 3.449219 59.613281 3.449219 59.617188 3.449219 L 61.28125 3.449219 C 62.238281 3.449219 63.101562 4.003906 63.476562 4.859375 C 63.691406 5.347656 63.707031 5.828125 63.523438 6.28125 C 63.140625 7.246094 61.988281 7.738281 61.941406 7.757812 C 61.894531 7.777344 61.847656 7.789062 61.796875 7.789062 C 61.65625 7.789062 61.519531 7.703125 61.460938 7.5625 C 61.382812 7.375 61.46875 7.164062 61.65625 7.082031 C 61.664062 7.078125 62.574219 6.683594 62.84375 6.007812 C 62.949219 5.734375 62.9375 5.457031 62.804688 5.152344 C 62.546875 4.5625 61.949219 4.179688 61.28125 4.179688 L 59.886719 4.179688 L 57.144531 13.214844 C 57.363281 13.5 57.589844 13.769531 57.820312 14.03125 C 59.265625 11.1875 62.21875 9.234375 65.625 9.234375 C 70.445312 9.234375 74.367188 13.15625 74.367188 17.976562 C 74.367188 22.796875 70.445312 26.714844 65.625 26.714844 C 60.800781 26.714844 56.878906 22.796875 56.878906 17.976562 C 56.878906 16.84375 57.09375 15.761719 57.488281 14.765625 C 57.164062 14.425781 56.855469 14.058594 56.558594 13.675781 C 55.164062 11.863281 54.074219 9.59375 53.328125 6.925781 L 47.144531 6.925781 L 50.222656 17.878906 L 50.96875 17.878906 C 51.171875 17.878906 51.335938 18.042969 51.335938 18.246094 C 51.335938 18.445312 51.171875 18.609375 50.96875 18.609375 L 49.945312 18.609375 C 49.945312 18.609375 49.945312 18.609375 49.941406 18.609375 L 48.214844 18.609375 C 47.886719 23.132812 44.097656 26.714844 39.492188 26.714844 C 34.671875 26.714844 30.746094 22.792969 30.746094 17.972656 C 30.75 13.15625 34.671875 9.234375 39.492188 9.234375 Z M 65.625 25.980469 C 70.042969 25.980469 73.632812 22.390625 73.632812 17.976562 C 73.632812 13.5625 70.042969 9.96875 65.625 9.96875 C 62.414062 9.96875 59.636719 11.867188 58.359375 14.601562 C 59.152344 15.386719 60.027344 16.042969 60.96875 16.5625 C 62.226562 17.257812 63.394531 17.585938 64.242188 17.742188 C 64.355469 17.078125 64.929688 16.574219 65.625 16.574219 C 66.398438 16.574219 67.023438 17.203125 67.023438 17.976562 C 67.023438 18.75 66.398438 19.375 65.625 19.375 C 65.035156 19.375 64.535156 19.015625 64.328125 18.503906 C 63.410156 18.355469 62.09375 18.015625 60.652344 17.226562 C 59.722656 16.71875 58.855469 16.085938 58.058594 15.335938 C 57.769531 16.164062 57.613281 17.050781 57.613281 17.976562 C 57.613281 22.390625 61.207031 25.980469 65.625 25.980469 Z M 39.492188 25.980469 C 43.695312 25.980469 47.152344 22.730469 47.480469 18.613281 L 39.628906 18.613281 L 39.136719 16.386719 C 39.089844 16.1875 39.214844 15.992188 39.414062 15.949219 C 39.609375 15.902344 39.808594 16.027344 39.851562 16.226562 L 40.21875 17.878906 L 47.5 17.878906 C 47.449219 13.507812 43.875 9.96875 39.492188 9.96875 C 35.109375 9.96875 31.535156 13.507812 31.484375 17.878906 L 38.683594 17.878906 C 38.886719 17.878906 39.050781 18.042969 39.050781 18.246094 C 39.050781 18.445312 38.886719 18.609375 38.683594 18.609375 L 31.507812 18.609375 C 31.835938 22.730469 35.292969 25.980469 39.492188 25.980469 Z M 39.492188 25.980469 "
            fill-opacity="1" fill-rule="nonzero" />
    </g>
    <path fill="#000000"
        d="M 50.605469 20.449219 C 50.664062 20.496094 52.070312 21.53125 53.734375 20.738281 C 54.902344 20.179688 55.640625 18.957031 55.609375 17.617188 C 55.578125 16.292969 54.976562 15.390625 53.722656 14.78125 C 53.695312 14.765625 53.585938 14.726562 53.476562 14.691406 C 53.085938 14.601562 51.808594 14.386719 50.535156 14.910156 L 49.996094 15.132812 L 50.085938 13.4375 C 50.09375 13.234375 50.269531 13.074219 50.46875 13.089844 C 50.671875 13.101562 50.828125 13.273438 50.816406 13.472656 L 50.789062 14.046875 C 52.089844 13.679688 53.289062 13.894531 53.660156 13.980469 L 53.699219 13.992188 C 53.777344 14.019531 53.964844 14.085938 54.042969 14.121094 C 55.550781 14.859375 56.304688 15.996094 56.339844 17.605469 C 56.378906 19.230469 55.480469 20.71875 54.050781 21.402344 C 53.480469 21.675781 52.9375 21.773438 52.445312 21.773438 C 51.144531 21.773438 50.214844 21.078125 50.160156 21.035156 C 50 20.914062 49.96875 20.683594 50.09375 20.523438 C 50.214844 20.359375 50.445312 20.328125 50.605469 20.449219 Z M 50.605469 20.449219 "
        fill-opacity="1" fill-rule="nonzero" />
    <g clip-path="url(#5f7322410d)">
        <path fill="#000000"
            d="M 39.222656 9.234375 C 44.011719 9.234375 47.914062 13.105469 47.96875 17.878906 L 49.191406 17.878906 L 45.34375 4.179688 L 43.273438 4.179688 L 43.273438 2.683594 C 43.273438 2.480469 43.4375 2.316406 43.640625 2.316406 C 43.84375 2.316406 44.007812 2.480469 44.007812 2.683594 L 44.007812 3.445312 L 47.601562 3.445312 C 47.800781 3.445312 47.96875 3.609375 47.96875 3.8125 C 47.96875 4.015625 47.800781 4.179688 47.601562 4.179688 L 46.105469 4.179688 L 46.667969 6.191406 L 55.394531 6.191406 C 55.597656 6.191406 55.761719 6.355469 55.761719 6.558594 C 55.761719 6.757812 55.597656 6.921875 55.394531 6.921875 L 53.824219 6.921875 C 54.4375 9.050781 55.285156 10.90625 56.335938 12.464844 L 58.851562 4.179688 L 57.433594 4.179688 C 57.230469 4.179688 57.066406 4.015625 57.066406 3.8125 C 57.066406 3.613281 57.230469 3.449219 57.433594 3.449219 L 59.339844 3.449219 C 59.34375 3.449219 59.34375 3.449219 59.347656 3.449219 L 61.011719 3.449219 C 61.96875 3.449219 62.828125 4.003906 63.207031 4.859375 C 63.417969 5.347656 63.433594 5.828125 63.253906 6.28125 C 62.871094 7.246094 61.71875 7.738281 61.671875 7.757812 C 61.625 7.777344 61.574219 7.789062 61.527344 7.789062 C 61.386719 7.789062 61.25 7.703125 61.191406 7.5625 C 61.109375 7.375 61.199219 7.164062 61.382812 7.082031 C 61.394531 7.078125 62.304688 6.683594 62.574219 6.007812 C 62.679688 5.734375 62.667969 5.457031 62.535156 5.152344 C 62.273438 4.5625 61.679688 4.179688 61.011719 4.179688 L 59.617188 4.179688 L 56.875 13.214844 C 57.089844 13.5 57.316406 13.769531 57.550781 14.03125 C 58.992188 11.1875 61.949219 9.234375 65.351562 9.234375 C 70.175781 9.234375 74.097656 13.15625 74.097656 17.976562 C 74.097656 22.796875 70.175781 26.714844 65.351562 26.714844 C 60.53125 26.714844 56.609375 22.796875 56.609375 17.976562 C 56.609375 16.84375 56.824219 15.761719 57.21875 14.765625 C 56.894531 14.425781 56.585938 14.058594 56.285156 13.675781 C 54.890625 11.863281 53.804688 9.59375 53.058594 6.925781 L 46.875 6.925781 L 49.953125 17.878906 L 50.695312 17.878906 C 50.898438 17.878906 51.0625 18.042969 51.0625 18.246094 C 51.0625 18.445312 50.898438 18.609375 50.695312 18.609375 L 49.675781 18.609375 C 49.675781 18.609375 49.671875 18.609375 49.671875 18.609375 L 47.941406 18.609375 C 47.617188 23.132812 43.828125 26.714844 39.222656 26.714844 C 34.398438 26.714844 30.476562 22.792969 30.476562 17.972656 C 30.476562 13.15625 34.402344 9.234375 39.222656 9.234375 Z M 65.351562 25.980469 C 69.769531 25.980469 73.363281 22.390625 73.363281 17.976562 C 73.363281 13.5625 69.769531 9.96875 65.351562 9.96875 C 62.140625 9.96875 59.367188 11.867188 58.089844 14.601562 C 58.882812 15.386719 59.753906 16.042969 60.695312 16.5625 C 61.953125 17.257812 63.121094 17.585938 63.972656 17.742188 C 64.085938 17.078125 64.660156 16.574219 65.351562 16.574219 C 66.128906 16.574219 66.753906 17.203125 66.753906 17.976562 C 66.753906 18.75 66.128906 19.375 65.351562 19.375 C 64.765625 19.375 64.265625 19.015625 64.054688 18.503906 C 63.136719 18.355469 61.824219 18.015625 60.382812 17.226562 C 59.453125 16.71875 58.585938 16.085938 57.789062 15.335938 C 57.5 16.164062 57.34375 17.050781 57.34375 17.976562 C 57.34375 22.390625 60.933594 25.980469 65.351562 25.980469 Z M 39.222656 25.980469 C 43.425781 25.980469 46.882812 22.730469 47.207031 18.613281 L 39.359375 18.613281 L 38.863281 16.386719 C 38.820312 16.1875 38.945312 15.992188 39.144531 15.949219 C 39.339844 15.902344 39.535156 16.027344 39.582031 16.226562 L 39.945312 17.878906 L 47.230469 17.878906 C 47.179688 13.507812 43.605469 9.96875 39.222656 9.96875 C 34.835938 9.96875 31.265625 13.507812 31.210938 17.878906 L 38.414062 17.878906 C 38.617188 17.878906 38.78125 18.042969 38.78125 18.246094 C 38.78125 18.445312 38.617188 18.609375 38.414062 18.609375 L 31.238281 18.609375 C 31.5625 22.730469 35.019531 25.980469 39.222656 25.980469 Z M 39.222656 25.980469 "
            fill-opacity="1" fill-rule="nonzero" />
    </g>
    <path fill="#000000"
        d="M 50.335938 20.449219 C 50.394531 20.496094 51.796875 21.53125 53.464844 20.738281 C 54.632812 20.179688 55.367188 18.957031 55.335938 17.617188 C 55.304688 16.292969 54.707031 15.390625 53.449219 14.78125 C 53.425781 14.765625 53.3125 14.726562 53.207031 14.691406 C 52.816406 14.601562 51.539062 14.386719 50.261719 14.910156 L 49.726562 15.132812 L 49.8125 13.4375 C 49.824219 13.234375 49.996094 13.074219 50.199219 13.089844 C 50.402344 13.101562 50.558594 13.273438 50.546875 13.472656 L 50.515625 14.046875 C 51.820312 13.679688 53.019531 13.894531 53.390625 13.980469 L 53.429688 13.992188 C 53.507812 14.019531 53.691406 14.085938 53.773438 14.121094 C 55.28125 14.859375 56.03125 15.996094 56.070312 17.605469 C 56.109375 19.230469 55.210938 20.71875 53.78125 21.402344 C 53.210938 21.675781 52.664062 21.773438 52.175781 21.773438 C 50.875 21.773438 49.945312 21.078125 49.890625 21.035156 C 49.730469 20.914062 49.699219 20.683594 49.820312 20.523438 C 49.945312 20.359375 50.175781 20.328125 50.335938 20.449219 Z M 50.335938 20.449219 "
        fill-opacity="1" fill-rule="nonzero" />
    <g clip-path="url(#70f6aeef4e)">
        <path fill="#000000"
            d="M 39.492188 9.234375 C 44.28125 9.234375 48.183594 13.105469 48.238281 17.878906 L 49.460938 17.878906 L 45.613281 4.179688 L 43.546875 4.179688 L 43.546875 2.683594 C 43.546875 2.480469 43.710938 2.316406 43.910156 2.316406 C 44.113281 2.316406 44.277344 2.480469 44.277344 2.683594 L 44.277344 3.445312 L 47.871094 3.445312 C 48.074219 3.445312 48.238281 3.609375 48.238281 3.8125 C 48.238281 4.015625 48.074219 4.179688 47.871094 4.179688 L 46.375 4.179688 L 46.941406 6.191406 L 55.664062 6.191406 C 55.867188 6.191406 56.03125 6.355469 56.03125 6.558594 C 56.03125 6.757812 55.867188 6.921875 55.664062 6.921875 L 54.09375 6.921875 C 54.710938 9.050781 55.554688 10.90625 56.605469 12.464844 L 59.121094 4.179688 L 57.703125 4.179688 C 57.503906 4.179688 57.339844 4.015625 57.339844 3.8125 C 57.339844 3.613281 57.503906 3.449219 57.703125 3.449219 L 59.613281 3.449219 C 59.613281 3.449219 59.613281 3.449219 59.617188 3.449219 L 61.28125 3.449219 C 62.238281 3.449219 63.101562 4.003906 63.476562 4.859375 C 63.691406 5.347656 63.707031 5.828125 63.523438 6.28125 C 63.140625 7.246094 61.988281 7.738281 61.941406 7.757812 C 61.894531 7.777344 61.847656 7.789062 61.796875 7.789062 C 61.65625 7.789062 61.519531 7.703125 61.460938 7.5625 C 61.382812 7.375 61.46875 7.164062 61.65625 7.082031 C 61.664062 7.078125 62.574219 6.683594 62.84375 6.007812 C 62.949219 5.734375 62.9375 5.457031 62.804688 5.152344 C 62.546875 4.5625 61.949219 4.179688 61.28125 4.179688 L 59.886719 4.179688 L 57.144531 13.214844 C 57.363281 13.5 57.589844 13.769531 57.820312 14.03125 C 59.265625 11.1875 62.21875 9.234375 65.625 9.234375 C 70.445312 9.234375 74.367188 13.15625 74.367188 17.976562 C 74.367188 22.796875 70.445312 26.714844 65.625 26.714844 C 60.800781 26.714844 56.878906 22.796875 56.878906 17.976562 C 56.878906 16.84375 57.09375 15.761719 57.488281 14.765625 C 57.164062 14.425781 56.855469 14.058594 56.558594 13.675781 C 55.164062 11.863281 54.074219 9.59375 53.328125 6.925781 L 47.144531 6.925781 L 50.222656 17.878906 L 50.96875 17.878906 C 51.171875 17.878906 51.335938 18.042969 51.335938 18.246094 C 51.335938 18.445312 51.171875 18.609375 50.96875 18.609375 L 49.945312 18.609375 C 49.945312 18.609375 49.945312 18.609375 49.941406 18.609375 L 48.214844 18.609375 C 47.886719 23.132812 44.097656 26.714844 39.492188 26.714844 C 34.671875 26.714844 30.746094 22.792969 30.746094 17.972656 C 30.75 13.15625 34.671875 9.234375 39.492188 9.234375 Z M 65.625 25.980469 C 70.042969 25.980469 73.632812 22.390625 73.632812 17.976562 C 73.632812 13.5625 70.042969 9.96875 65.625 9.96875 C 62.414062 9.96875 59.636719 11.867188 58.359375 14.601562 C 59.152344 15.386719 60.027344 16.042969 60.96875 16.5625 C 62.226562 17.257812 63.394531 17.585938 64.242188 17.742188 C 64.355469 17.078125 64.929688 16.574219 65.625 16.574219 C 66.398438 16.574219 67.023438 17.203125 67.023438 17.976562 C 67.023438 18.75 66.398438 19.375 65.625 19.375 C 65.035156 19.375 64.535156 19.015625 64.328125 18.503906 C 63.410156 18.355469 62.09375 18.015625 60.652344 17.226562 C 59.722656 16.71875 58.855469 16.085938 58.058594 15.335938 C 57.769531 16.164062 57.613281 17.050781 57.613281 17.976562 C 57.613281 22.390625 61.207031 25.980469 65.625 25.980469 Z M 39.492188 25.980469 C 43.695312 25.980469 47.152344 22.730469 47.480469 18.613281 L 39.628906 18.613281 L 39.136719 16.386719 C 39.089844 16.1875 39.214844 15.992188 39.414062 15.949219 C 39.609375 15.902344 39.808594 16.027344 39.851562 16.226562 L 40.21875 17.878906 L 47.5 17.878906 C 47.449219 13.507812 43.875 9.96875 39.492188 9.96875 C 35.109375 9.96875 31.535156 13.507812 31.484375 17.878906 L 38.683594 17.878906 C 38.886719 17.878906 39.050781 18.042969 39.050781 18.246094 C 39.050781 18.445312 38.886719 18.609375 38.683594 18.609375 L 31.507812 18.609375 C 31.835938 22.730469 35.292969 25.980469 39.492188 25.980469 Z M 39.492188 25.980469 "
            fill-opacity="1" fill-rule="nonzero" />
    </g>
    <path fill="#000000"
        d="M 50.605469 20.449219 C 50.664062 20.496094 52.070312 21.53125 53.734375 20.738281 C 54.902344 20.179688 55.640625 18.957031 55.609375 17.617188 C 55.578125 16.292969 54.976562 15.390625 53.722656 14.78125 C 53.695312 14.765625 53.585938 14.726562 53.476562 14.691406 C 53.085938 14.601562 51.808594 14.386719 50.535156 14.910156 L 49.996094 15.132812 L 50.085938 13.4375 C 50.09375 13.234375 50.269531 13.074219 50.46875 13.089844 C 50.671875 13.101562 50.828125 13.273438 50.816406 13.472656 L 50.789062 14.046875 C 52.089844 13.679688 53.289062 13.894531 53.660156 13.980469 L 53.699219 13.992188 C 53.777344 14.019531 53.964844 14.085938 54.042969 14.121094 C 55.550781 14.859375 56.304688 15.996094 56.339844 17.605469 C 56.378906 19.230469 55.480469 20.71875 54.050781 21.402344 C 53.480469 21.675781 52.9375 21.773438 52.445312 21.773438 C 51.144531 21.773438 50.214844 21.078125 50.160156 21.035156 C 50 20.914062 49.96875 20.683594 50.09375 20.523438 C 50.214844 20.359375 50.445312 20.328125 50.605469 20.449219 Z M 50.605469 20.449219 "
        fill-opacity="1" fill-rule="nonzero" />
    <g clip-path="url(#875e6858a1)">
        <path fill="#ffd034"
            d="M 21.332031 14.296875 C 21.054688 14.296875 20.789062 14.351562 20.535156 14.460938 C 20.277344 14.566406 20.050781 14.722656 19.855469 14.925781 C 19.660156 15.125 19.511719 15.359375 19.402344 15.621094 C 19.296875 15.882812 19.242188 16.15625 19.242188 16.441406 C 19.242188 16.675781 19.289062 16.902344 19.375 17.121094 C 19.464844 17.335938 19.585938 17.527344 19.75 17.695312 C 19.910156 17.859375 20.09375 17.988281 20.304688 18.078125 C 20.515625 18.167969 20.734375 18.214844 20.964844 18.214844 C 21.152344 18.214844 21.332031 18.175781 21.507812 18.101562 C 21.683594 18.027344 21.835938 17.921875 21.96875 17.785156 C 22.101562 17.648438 22.207031 17.488281 22.277344 17.308594 C 22.351562 17.128906 22.386719 16.941406 22.386719 16.746094 C 22.386719 16.585938 22.355469 16.429688 22.296875 16.28125 C 22.234375 16.132812 22.148438 16 22.039062 15.882812 C 21.929688 15.769531 21.800781 15.683594 21.65625 15.621094 C 21.507812 15.558594 21.359375 15.527344 21.199219 15.527344 C 21.070312 15.527344 20.941406 15.550781 20.820312 15.601562 C 20.695312 15.65625 20.585938 15.730469 20.492188 15.824219 C 20.398438 15.921875 20.328125 16.03125 20.277344 16.160156 C 20.226562 16.285156 20.199219 16.417969 20.199219 16.550781 C 20.199219 16.792969 20.285156 17 20.449219 17.171875 C 20.617188 17.34375 20.816406 17.429688 21.050781 17.429688 C 21.210938 17.425781 21.289062 17.339844 21.292969 17.179688 C 21.292969 17.109375 21.269531 17.050781 21.222656 17 C 21.175781 16.953125 21.117188 16.929688 21.050781 16.929688 C 20.949219 16.925781 20.863281 16.890625 20.792969 16.816406 C 20.722656 16.742188 20.6875 16.65625 20.6875 16.550781 C 20.6875 16.40625 20.738281 16.28125 20.839844 16.179688 C 20.9375 16.078125 21.058594 16.027344 21.199219 16.027344 C 21.394531 16.027344 21.558594 16.097656 21.695312 16.238281 C 21.832031 16.378906 21.898438 16.550781 21.902344 16.746094 C 21.898438 17.015625 21.808594 17.242188 21.625 17.429688 C 21.441406 17.617188 21.222656 17.710938 20.964844 17.714844 C 20.800781 17.714844 20.640625 17.679688 20.492188 17.617188 C 20.339844 17.550781 20.207031 17.460938 20.089844 17.339844 C 19.976562 17.222656 19.886719 17.085938 19.824219 16.929688 C 19.761719 16.773438 19.730469 16.609375 19.730469 16.441406 C 19.730469 16.222656 19.769531 16.015625 19.851562 15.8125 C 19.933594 15.609375 20.050781 15.433594 20.199219 15.277344 C 20.351562 15.125 20.523438 15.003906 20.71875 14.921875 C 20.914062 14.835938 21.121094 14.796875 21.332031 14.796875 C 21.605469 14.796875 21.867188 14.851562 22.121094 14.957031 C 22.371094 15.066406 22.59375 15.21875 22.789062 15.417969 C 22.980469 15.617188 23.128906 15.847656 23.234375 16.105469 C 23.339844 16.367188 23.390625 16.636719 23.390625 16.917969 C 23.390625 17.277344 23.324219 17.625 23.191406 17.957031 C 23.058594 18.289062 22.867188 18.585938 22.621094 18.839844 C 22.371094 19.09375 22.085938 19.289062 21.761719 19.429688 C 21.441406 19.566406 21.105469 19.636719 20.753906 19.636719 L 12.871094 19.636719 C 12.710938 19.636719 12.628906 19.722656 12.628906 19.886719 C 12.628906 19.953125 12.652344 20.011719 12.699219 20.0625 C 12.746094 20.109375 12.804688 20.136719 12.871094 20.136719 L 20.753906 20.136719 C 21.167969 20.136719 21.566406 20.054688 21.949219 19.890625 C 22.332031 19.726562 22.667969 19.496094 22.960938 19.191406 C 23.253906 18.890625 23.480469 18.542969 23.640625 18.148438 C 23.796875 17.753906 23.878906 17.34375 23.878906 16.917969 C 23.875 16.570312 23.8125 16.234375 23.683594 15.914062 C 23.554688 15.59375 23.371094 15.3125 23.128906 15.066406 C 22.890625 14.820312 22.617188 14.628906 22.304688 14.496094 C 21.992188 14.363281 21.667969 14.296875 21.332031 14.296875 Z M 21.332031 14.296875 "
            fill-opacity="1" fill-rule="nonzero" />
    </g>
    <g clip-path="url(#3161278821)">
        <path fill="#ffd034"
            d="M 19.058594 20.460938 L 13.933594 20.460938 C 13.773438 20.464844 13.695312 20.546875 13.691406 20.710938 C 13.691406 20.78125 13.714844 20.839844 13.761719 20.886719 C 13.808594 20.9375 13.867188 20.960938 13.933594 20.960938 L 19.058594 20.960938 C 19.273438 20.960938 19.484375 21.003906 19.683594 21.089844 C 19.882812 21.175781 20.058594 21.296875 20.210938 21.457031 C 20.363281 21.613281 20.480469 21.792969 20.566406 22 C 20.648438 22.207031 20.691406 22.417969 20.691406 22.640625 C 20.691406 22.8125 20.65625 22.980469 20.59375 23.136719 C 20.53125 23.296875 20.4375 23.433594 20.320312 23.554688 C 20.203125 23.675781 20.066406 23.769531 19.914062 23.835938 C 19.757812 23.902344 19.597656 23.933594 19.433594 23.933594 C 19.304688 23.933594 19.179688 23.910156 19.0625 23.859375 C 18.941406 23.808594 18.835938 23.734375 18.746094 23.640625 C 18.65625 23.546875 18.585938 23.4375 18.535156 23.316406 C 18.484375 23.191406 18.460938 23.066406 18.460938 22.933594 C 18.460938 22.730469 18.535156 22.554688 18.671875 22.414062 C 18.8125 22.269531 18.984375 22.195312 19.179688 22.195312 L 19.234375 22.195312 C 19.058594 22.203125 18.910156 22.269531 18.789062 22.398438 C 18.667969 22.53125 18.609375 22.6875 18.613281 22.867188 C 18.613281 23.078125 18.683594 23.253906 18.828125 23.402344 C 18.96875 23.550781 19.144531 23.625 19.34375 23.625 C 19.582031 23.625 19.785156 23.539062 19.953125 23.367188 C 20.121094 23.195312 20.207031 22.988281 20.207031 22.742188 C 20.207031 22.605469 20.179688 22.472656 20.128906 22.34375 C 20.078125 22.21875 20.003906 22.105469 19.910156 22.007812 C 19.8125 21.910156 19.707031 21.832031 19.582031 21.78125 C 19.457031 21.726562 19.328125 21.703125 19.195312 21.703125 C 19.035156 21.703125 18.882812 21.734375 18.734375 21.796875 C 18.585938 21.859375 18.457031 21.949219 18.34375 22.0625 C 18.230469 22.179688 18.144531 22.3125 18.082031 22.464844 C 18.023438 22.617188 17.992188 22.773438 17.988281 22.9375 C 17.988281 23.136719 18.027344 23.328125 18.101562 23.511719 C 18.175781 23.695312 18.28125 23.859375 18.417969 24 C 18.554688 24.140625 18.710938 24.25 18.890625 24.324219 C 19.066406 24.402344 19.253906 24.4375 19.449219 24.4375 C 19.679688 24.4375 19.898438 24.394531 20.113281 24.304688 C 20.328125 24.210938 20.515625 24.082031 20.679688 23.914062 C 20.84375 23.746094 20.96875 23.554688 21.058594 23.332031 C 21.144531 23.113281 21.191406 22.886719 21.191406 22.648438 C 21.191406 22.355469 21.136719 22.078125 21.027344 21.808594 C 20.921875 21.539062 20.765625 21.304688 20.566406 21.097656 C 20.367188 20.890625 20.136719 20.734375 19.875 20.625 C 19.613281 20.515625 19.339844 20.460938 19.058594 20.460938 Z M 19.71875 22.753906 C 19.71875 22.859375 19.679688 22.949219 19.609375 23.023438 C 19.535156 23.097656 19.449219 23.132812 19.34375 23.132812 C 19.277344 23.132812 19.21875 23.109375 19.171875 23.058594 C 19.121094 23.007812 19.097656 22.949219 19.097656 22.878906 C 19.097656 22.773438 19.148438 22.722656 19.25 22.722656 C 19.316406 22.722656 19.371094 22.699219 19.417969 22.648438 C 19.46875 22.601562 19.492188 22.542969 19.492188 22.472656 C 19.488281 22.363281 19.441406 22.285156 19.34375 22.242188 C 19.59375 22.316406 19.71875 22.488281 19.71875 22.753906 Z M 19.71875 22.753906 "
            fill-opacity="1" fill-rule="nonzero" />
    </g>
    <g clip-path="url(#3f8b2f5bbc)">
        <path fill="#ffd034"
            d="M 19.011719 17.121094 C 19.011719 16.886719 18.964844 16.65625 18.878906 16.4375 C 18.789062 16.214844 18.664062 16.023438 18.5 15.855469 C 18.335938 15.6875 18.148438 15.558594 17.933594 15.464844 C 17.71875 15.375 17.496094 15.332031 17.265625 15.332031 C 17.074219 15.332031 16.886719 15.371094 16.707031 15.445312 C 16.53125 15.523438 16.371094 15.628906 16.234375 15.769531 C 16.097656 15.910156 15.992188 16.074219 15.917969 16.257812 C 15.847656 16.441406 15.808594 16.632812 15.808594 16.832031 C 15.808594 16.996094 15.839844 17.15625 15.898438 17.304688 C 15.960938 17.457031 16.046875 17.59375 16.160156 17.707031 C 16.273438 17.824219 16.402344 17.914062 16.550781 17.976562 C 16.695312 18.042969 16.847656 18.074219 17.007812 18.074219 C 17.144531 18.074219 17.273438 18.046875 17.394531 17.996094 C 17.519531 17.941406 17.628906 17.867188 17.722656 17.769531 C 17.816406 17.671875 17.890625 17.558594 17.941406 17.429688 C 17.992188 17.304688 18.019531 17.171875 18.019531 17.03125 C 18.019531 16.789062 17.9375 16.582031 17.769531 16.410156 C 17.601562 16.238281 17.398438 16.152344 17.164062 16.152344 C 16.960938 16.152344 16.789062 16.222656 16.644531 16.371094 C 16.5 16.519531 16.429688 16.699219 16.429688 16.90625 C 16.429688 17.085938 16.492188 17.242188 16.617188 17.367188 C 16.738281 17.496094 16.886719 17.558594 17.0625 17.558594 C 17.039062 17.5625 17.015625 17.5625 16.996094 17.558594 C 16.796875 17.558594 16.628906 17.484375 16.488281 17.339844 C 16.347656 17.195312 16.277344 17.023438 16.28125 16.816406 C 16.28125 16.683594 16.304688 16.558594 16.355469 16.433594 C 16.402344 16.3125 16.472656 16.203125 16.566406 16.109375 C 16.65625 16.015625 16.761719 15.945312 16.878906 15.894531 C 17 15.84375 17.121094 15.816406 17.25 15.816406 C 17.417969 15.816406 17.578125 15.851562 17.730469 15.914062 C 17.886719 15.980469 18.023438 16.074219 18.140625 16.195312 C 18.257812 16.316406 18.347656 16.457031 18.414062 16.613281 C 18.476562 16.773438 18.507812 16.9375 18.511719 17.109375 C 18.507812 17.332031 18.46875 17.542969 18.382812 17.75 C 18.300781 17.957031 18.183594 18.136719 18.03125 18.292969 C 17.878906 18.449219 17.699219 18.570312 17.5 18.65625 C 17.300781 18.742188 17.09375 18.785156 16.878906 18.785156 L 11.773438 18.785156 C 11.703125 18.785156 11.648438 18.808594 11.601562 18.859375 C 11.554688 18.90625 11.527344 18.964844 11.527344 19.035156 C 11.527344 19.105469 11.554688 19.164062 11.601562 19.210938 C 11.648438 19.261719 11.703125 19.285156 11.773438 19.285156 L 16.890625 19.285156 C 17.171875 19.285156 17.441406 19.230469 17.699219 19.121094 C 17.957031 19.011719 18.183594 18.855469 18.382812 18.652344 C 18.582031 18.449219 18.734375 18.214844 18.84375 17.953125 C 18.953125 17.6875 19.007812 17.410156 19.011719 17.121094 Z M 17.066406 17.039062 C 16.964844 17.042969 16.917969 16.992188 16.921875 16.886719 C 16.921875 16.816406 16.945312 16.757812 16.992188 16.707031 C 17.042969 16.65625 17.101562 16.632812 17.167969 16.632812 C 17.269531 16.632812 17.359375 16.667969 17.429688 16.742188 C 17.503906 16.816406 17.539062 16.90625 17.539062 17.011719 C 17.535156 17.273438 17.410156 17.441406 17.164062 17.511719 C 17.265625 17.472656 17.3125 17.394531 17.308594 17.28125 C 17.308594 17.128906 17.230469 17.046875 17.082031 17.039062 Z M 17.066406 17.039062 "
            fill-opacity="1" fill-rule="nonzero" />
    </g>
    <g clip-path="url(#8568114677)">
        <path fill="#209d5c"
            d="M 27.46875 4.683594 C 27.195312 4.683594 26.925781 4.734375 26.671875 4.84375 C 26.417969 4.953125 26.191406 5.109375 25.996094 5.308594 C 25.800781 5.511719 25.648438 5.742188 25.542969 6.007812 C 25.433594 6.269531 25.382812 6.542969 25.382812 6.828125 C 25.382812 7.0625 25.425781 7.289062 25.511719 7.503906 C 25.601562 7.722656 25.726562 7.914062 25.886719 8.078125 C 26.046875 8.246094 26.234375 8.375 26.445312 8.464844 C 26.652344 8.554688 26.875 8.597656 27.101562 8.601562 C 27.289062 8.601562 27.472656 8.5625 27.644531 8.488281 C 27.820312 8.414062 27.972656 8.308594 28.109375 8.171875 C 28.242188 8.03125 28.34375 7.875 28.414062 7.695312 C 28.488281 7.515625 28.523438 7.328125 28.523438 7.132812 C 28.523438 6.972656 28.496094 6.816406 28.433594 6.667969 C 28.375 6.515625 28.289062 6.386719 28.175781 6.269531 C 28.066406 6.15625 27.9375 6.066406 27.792969 6.003906 C 27.648438 5.945312 27.496094 5.914062 27.339844 5.914062 C 27.207031 5.910156 27.078125 5.9375 26.957031 5.988281 C 26.832031 6.042969 26.726562 6.113281 26.632812 6.210938 C 26.539062 6.308594 26.464844 6.417969 26.414062 6.542969 C 26.363281 6.671875 26.339844 6.800781 26.339844 6.9375 C 26.339844 7.179688 26.421875 7.386719 26.585938 7.558594 C 26.753906 7.730469 26.953125 7.8125 27.1875 7.8125 C 27.347656 7.8125 27.429688 7.726562 27.429688 7.5625 C 27.429688 7.496094 27.40625 7.4375 27.359375 7.386719 C 27.3125 7.339844 27.253906 7.3125 27.1875 7.3125 C 27.089844 7.3125 27.003906 7.273438 26.933594 7.203125 C 26.863281 7.128906 26.824219 7.042969 26.824219 6.9375 C 26.824219 6.792969 26.875 6.667969 26.976562 6.566406 C 27.078125 6.464844 27.199219 6.414062 27.339844 6.414062 C 27.53125 6.414062 27.695312 6.484375 27.832031 6.625 C 27.96875 6.765625 28.039062 6.933594 28.039062 7.132812 C 28.039062 7.398438 27.945312 7.628906 27.761719 7.816406 C 27.578125 8.003906 27.359375 8.097656 27.101562 8.097656 C 26.9375 8.097656 26.78125 8.066406 26.628906 8.003906 C 26.476562 7.9375 26.34375 7.847656 26.230469 7.726562 C 26.113281 7.609375 26.023438 7.46875 25.960938 7.316406 C 25.898438 7.160156 25.867188 6.996094 25.867188 6.828125 C 25.867188 6.609375 25.910156 6.398438 25.992188 6.199219 C 26.070312 5.996094 26.1875 5.816406 26.339844 5.664062 C 26.488281 5.507812 26.660156 5.390625 26.859375 5.308594 C 27.054688 5.222656 27.257812 5.183594 27.46875 5.183594 C 27.742188 5.183594 28.007812 5.234375 28.257812 5.34375 C 28.511719 5.453125 28.734375 5.605469 28.925781 5.804688 C 29.121094 6.003906 29.269531 6.230469 29.375 6.492188 C 29.476562 6.75 29.53125 7.023438 29.53125 7.304688 C 29.53125 7.664062 29.464844 8.011719 29.328125 8.34375 C 29.195312 8.675781 29.003906 8.96875 28.757812 9.226562 C 28.511719 9.480469 28.226562 9.675781 27.902344 9.8125 C 27.578125 9.953125 27.242188 10.019531 26.890625 10.019531 L 19.007812 10.019531 C 18.847656 10.023438 18.769531 10.109375 18.765625 10.269531 C 18.765625 10.339844 18.789062 10.398438 18.835938 10.449219 C 18.882812 10.496094 18.941406 10.519531 19.007812 10.519531 L 26.890625 10.519531 C 27.304688 10.519531 27.703125 10.441406 28.085938 10.277344 C 28.46875 10.113281 28.808594 9.878906 29.101562 9.578125 C 29.394531 9.277344 29.621094 8.929688 29.777344 8.535156 C 29.9375 8.140625 30.015625 7.730469 30.015625 7.304688 C 30.015625 6.957031 29.949219 6.621094 29.820312 6.300781 C 29.691406 5.980469 29.507812 5.695312 29.269531 5.449219 C 29.03125 5.207031 28.753906 5.015625 28.445312 4.882812 C 28.132812 4.75 27.808594 4.683594 27.46875 4.683594 Z M 27.46875 4.683594 "
            fill-opacity="1" fill-rule="nonzero" />
    </g>
    <g clip-path="url(#1498875f81)">
        <path fill="#209d5c"
            d="M 25.195312 10.847656 L 20.070312 10.847656 C 19.914062 10.851562 19.832031 10.933594 19.828125 11.097656 C 19.828125 11.167969 19.851562 11.226562 19.898438 11.273438 C 19.949219 11.324219 20.003906 11.347656 20.070312 11.347656 L 25.195312 11.347656 C 25.414062 11.347656 25.621094 11.390625 25.820312 11.476562 C 26.019531 11.5625 26.195312 11.683594 26.347656 11.839844 C 26.503906 12 26.621094 12.179688 26.703125 12.386719 C 26.785156 12.589844 26.828125 12.804688 26.828125 13.027344 C 26.828125 13.199219 26.796875 13.363281 26.730469 13.523438 C 26.667969 13.679688 26.578125 13.820312 26.457031 13.941406 C 26.339844 14.0625 26.203125 14.15625 26.050781 14.222656 C 25.898438 14.285156 25.738281 14.320312 25.570312 14.320312 C 25.441406 14.320312 25.316406 14.292969 25.199219 14.242188 C 25.078125 14.191406 24.976562 14.121094 24.882812 14.027344 C 24.792969 13.933594 24.722656 13.824219 24.671875 13.703125 C 24.625 13.578125 24.597656 13.453125 24.597656 13.320312 C 24.601562 13.113281 24.671875 12.941406 24.8125 12.796875 C 24.953125 12.65625 25.121094 12.582031 25.316406 12.582031 L 25.371094 12.582031 C 25.195312 12.585938 25.046875 12.65625 24.925781 12.785156 C 24.804688 12.917969 24.746094 13.074219 24.75 13.253906 C 24.75 13.460938 24.820312 13.640625 24.964844 13.789062 C 25.109375 13.933594 25.28125 14.007812 25.484375 14.007812 C 25.71875 14.011719 25.921875 13.925781 26.089844 13.753906 C 26.257812 13.582031 26.34375 13.371094 26.34375 13.128906 C 26.34375 12.992188 26.316406 12.859375 26.265625 12.730469 C 26.214844 12.601562 26.140625 12.488281 26.046875 12.394531 C 25.953125 12.296875 25.84375 12.21875 25.71875 12.167969 C 25.59375 12.113281 25.464844 12.085938 25.332031 12.085938 C 25.171875 12.085938 25.019531 12.117188 24.871094 12.183594 C 24.726562 12.246094 24.59375 12.332031 24.484375 12.449219 C 24.371094 12.566406 24.28125 12.699219 24.222656 12.851562 C 24.160156 13 24.128906 13.160156 24.128906 13.324219 C 24.128906 13.523438 24.164062 13.714844 24.238281 13.898438 C 24.3125 14.082031 24.417969 14.246094 24.554688 14.386719 C 24.691406 14.527344 24.847656 14.632812 25.027344 14.710938 C 25.207031 14.785156 25.390625 14.824219 25.585938 14.824219 C 25.816406 14.824219 26.039062 14.78125 26.25 14.6875 C 26.464844 14.597656 26.652344 14.46875 26.816406 14.300781 C 26.980469 14.132812 27.105469 13.9375 27.195312 13.71875 C 27.285156 13.5 27.328125 13.269531 27.328125 13.035156 C 27.328125 12.742188 27.273438 12.464844 27.167969 12.195312 C 27.058594 11.925781 26.902344 11.6875 26.703125 11.484375 C 26.503906 11.277344 26.273438 11.121094 26.011719 11.011719 C 25.75 10.898438 25.480469 10.84375 25.195312 10.847656 Z M 25.859375 13.136719 C 25.855469 13.242188 25.820312 13.332031 25.746094 13.40625 C 25.671875 13.480469 25.585938 13.519531 25.484375 13.519531 C 25.414062 13.519531 25.355469 13.492188 25.308594 13.445312 C 25.261719 13.394531 25.234375 13.335938 25.234375 13.265625 C 25.234375 13.160156 25.285156 13.109375 25.386719 13.109375 C 25.453125 13.109375 25.511719 13.085938 25.558594 13.035156 C 25.605469 12.988281 25.628906 12.925781 25.628906 12.859375 C 25.628906 12.75 25.578125 12.671875 25.484375 12.628906 C 25.730469 12.703125 25.855469 12.871094 25.859375 13.136719 Z M 25.859375 13.136719 "
            fill-opacity="1" fill-rule="nonzero" />
    </g>
    <g clip-path="url(#de3321bba2)">
        <path fill="#209d5c"
            d="M 25.148438 7.507812 C 25.148438 7.269531 25.105469 7.042969 25.015625 6.820312 C 24.925781 6.601562 24.800781 6.410156 24.636719 6.242188 C 24.472656 6.074219 24.285156 5.941406 24.070312 5.851562 C 23.859375 5.761719 23.636719 5.71875 23.402344 5.71875 C 23.210938 5.71875 23.023438 5.753906 22.847656 5.832031 C 22.667969 5.90625 22.511719 6.015625 22.375 6.15625 C 22.238281 6.296875 22.132812 6.460938 22.058594 6.644531 C 21.984375 6.828125 21.945312 7.019531 21.945312 7.21875 C 21.945312 7.382812 21.976562 7.539062 22.039062 7.691406 C 22.097656 7.84375 22.1875 7.976562 22.296875 8.09375 C 22.410156 8.210938 22.539062 8.300781 22.6875 8.363281 C 22.835938 8.425781 22.988281 8.460938 23.148438 8.460938 C 23.28125 8.460938 23.410156 8.433594 23.535156 8.378906 C 23.65625 8.328125 23.765625 8.253906 23.859375 8.15625 C 23.957031 8.058594 24.027344 7.945312 24.082031 7.816406 C 24.132812 7.691406 24.15625 7.558594 24.15625 7.417969 C 24.15625 7.175781 24.074219 6.96875 23.90625 6.796875 C 23.738281 6.625 23.539062 6.539062 23.300781 6.539062 C 23.097656 6.535156 22.925781 6.609375 22.78125 6.757812 C 22.636719 6.90625 22.566406 7.085938 22.570312 7.292969 C 22.570312 7.472656 22.628906 7.625 22.753906 7.753906 C 22.878906 7.878906 23.027344 7.945312 23.199219 7.945312 C 23.175781 7.945312 23.15625 7.945312 23.132812 7.945312 C 22.933594 7.945312 22.765625 7.871094 22.625 7.726562 C 22.484375 7.582031 22.417969 7.40625 22.417969 7.203125 C 22.417969 7.070312 22.441406 6.941406 22.492188 6.820312 C 22.542969 6.699219 22.613281 6.589844 22.703125 6.496094 C 22.792969 6.402344 22.898438 6.328125 23.019531 6.277344 C 23.136719 6.226562 23.261719 6.203125 23.390625 6.203125 C 23.554688 6.203125 23.714844 6.234375 23.871094 6.300781 C 24.023438 6.367188 24.160156 6.460938 24.277344 6.582031 C 24.394531 6.703125 24.488281 6.839844 24.550781 7 C 24.613281 7.15625 24.648438 7.324219 24.648438 7.492188 C 24.648438 7.714844 24.605469 7.929688 24.523438 8.136719 C 24.4375 8.339844 24.320312 8.523438 24.167969 8.679688 C 24.015625 8.835938 23.839844 8.957031 23.640625 9.042969 C 23.441406 9.128906 23.230469 9.171875 23.015625 9.171875 L 17.910156 9.171875 C 17.84375 9.171875 17.785156 9.195312 17.738281 9.242188 C 17.691406 9.292969 17.667969 9.351562 17.667969 9.421875 C 17.667969 9.488281 17.691406 9.546875 17.738281 9.597656 C 17.785156 9.644531 17.84375 9.671875 17.910156 9.671875 L 23.03125 9.671875 C 23.308594 9.671875 23.578125 9.617188 23.835938 9.507812 C 24.09375 9.398438 24.324219 9.242188 24.519531 9.039062 C 24.71875 8.835938 24.871094 8.601562 24.980469 8.335938 C 25.089844 8.074219 25.144531 7.796875 25.148438 7.507812 Z M 23.207031 7.425781 C 23.105469 7.425781 23.054688 7.378906 23.058594 7.273438 C 23.058594 7.203125 23.082031 7.144531 23.132812 7.09375 C 23.179688 7.042969 23.238281 7.019531 23.308594 7.019531 C 23.410156 7.019531 23.496094 7.054688 23.566406 7.128906 C 23.640625 7.203125 23.675781 7.292969 23.675781 7.398438 C 23.671875 7.660156 23.546875 7.828125 23.300781 7.898438 C 23.402344 7.859375 23.453125 7.78125 23.449219 7.667969 C 23.445312 7.515625 23.371094 7.433594 23.21875 7.425781 Z M 23.207031 7.425781 "
            fill-opacity="1" fill-rule="nonzero" />
    </g>
    <g clip-path="url(#161e1594d4)">
        <path fill="#ffd034"
            d="M 82.070312 4.476562 C 81.792969 4.476562 81.527344 4.527344 81.273438 4.636719 C 81.015625 4.746094 80.789062 4.902344 80.59375 5.101562 C 80.398438 5.304688 80.25 5.535156 80.140625 5.800781 C 80.035156 6.0625 79.980469 6.335938 79.980469 6.621094 C 79.980469 6.855469 80.027344 7.082031 80.113281 7.296875 C 80.199219 7.515625 80.324219 7.707031 80.488281 7.871094 C 80.648438 8.039062 80.832031 8.167969 81.042969 8.257812 C 81.253906 8.347656 81.472656 8.390625 81.699219 8.394531 C 81.890625 8.394531 82.070312 8.355469 82.246094 8.28125 C 82.421875 8.207031 82.574219 8.101562 82.707031 7.964844 C 82.839844 7.824219 82.945312 7.667969 83.015625 7.488281 C 83.089844 7.308594 83.125 7.121094 83.125 6.925781 C 83.125 6.765625 83.09375 6.609375 83.035156 6.460938 C 82.972656 6.308594 82.886719 6.179688 82.777344 6.0625 C 82.667969 5.949219 82.539062 5.859375 82.394531 5.796875 C 82.246094 5.738281 82.097656 5.707031 81.9375 5.707031 C 81.808594 5.707031 81.679688 5.730469 81.554688 5.78125 C 81.433594 5.835938 81.324219 5.910156 81.230469 6.003906 C 81.136719 6.101562 81.066406 6.210938 81.015625 6.339844 C 80.964844 6.464844 80.9375 6.59375 80.9375 6.730469 C 80.9375 6.972656 81.019531 7.179688 81.1875 7.351562 C 81.351562 7.523438 81.554688 7.605469 81.789062 7.605469 C 81.949219 7.605469 82.027344 7.519531 82.03125 7.355469 C 82.03125 7.289062 82.007812 7.230469 81.960938 7.179688 C 81.914062 7.132812 81.855469 7.105469 81.789062 7.105469 C 81.6875 7.105469 81.601562 7.070312 81.53125 6.996094 C 81.460938 6.921875 81.425781 6.835938 81.425781 6.730469 C 81.425781 6.585938 81.476562 6.460938 81.578125 6.359375 C 81.675781 6.257812 81.796875 6.207031 81.9375 6.207031 C 82.132812 6.207031 82.296875 6.277344 82.433594 6.417969 C 82.570312 6.558594 82.636719 6.726562 82.640625 6.925781 C 82.636719 7.191406 82.546875 7.421875 82.363281 7.609375 C 82.179688 7.796875 81.960938 7.890625 81.699219 7.894531 C 81.539062 7.894531 81.378906 7.859375 81.230469 7.796875 C 81.078125 7.730469 80.945312 7.640625 80.828125 7.519531 C 80.714844 7.402344 80.625 7.265625 80.5625 7.109375 C 80.5 6.953125 80.46875 6.789062 80.46875 6.621094 C 80.46875 6.402344 80.507812 6.191406 80.589844 5.992188 C 80.671875 5.789062 80.789062 5.613281 80.9375 5.457031 C 81.089844 5.304688 81.261719 5.183594 81.457031 5.101562 C 81.652344 5.015625 81.859375 4.976562 82.070312 4.976562 C 82.34375 4.976562 82.605469 5.027344 82.859375 5.136719 C 83.109375 5.246094 83.332031 5.398438 83.527344 5.597656 C 83.71875 5.796875 83.867188 6.023438 83.972656 6.285156 C 84.078125 6.546875 84.128906 6.816406 84.128906 7.097656 C 84.128906 7.457031 84.0625 7.804688 83.929688 8.136719 C 83.796875 8.46875 83.605469 8.761719 83.359375 9.019531 C 83.109375 9.273438 82.824219 9.46875 82.5 9.605469 C 82.179688 9.746094 81.84375 9.8125 81.492188 9.8125 L 73.609375 9.8125 C 73.449219 9.816406 73.367188 9.902344 73.363281 10.0625 C 73.363281 10.132812 73.390625 10.191406 73.4375 10.242188 C 73.484375 10.289062 73.542969 10.316406 73.609375 10.316406 L 81.492188 10.316406 C 81.90625 10.316406 82.304688 10.234375 82.6875 10.070312 C 83.070312 9.90625 83.40625 9.675781 83.699219 9.371094 C 83.992188 9.070312 84.21875 8.722656 84.378906 8.328125 C 84.535156 7.933594 84.617188 7.523438 84.617188 7.097656 C 84.613281 6.75 84.550781 6.414062 84.421875 6.09375 C 84.292969 5.773438 84.105469 5.488281 83.867188 5.246094 C 83.628906 5 83.355469 4.808594 83.042969 4.675781 C 82.730469 4.542969 82.40625 4.476562 82.070312 4.476562 Z M 82.070312 4.476562 "
            fill-opacity="1" fill-rule="nonzero" />
    </g>
    <g clip-path="url(#40739ae8b9)">
        <path fill="#ffd034"
            d="M 79.796875 10.640625 L 74.671875 10.640625 C 74.511719 10.644531 74.433594 10.726562 74.429688 10.890625 C 74.429688 10.960938 74.453125 11.019531 74.5 11.066406 C 74.546875 11.117188 74.605469 11.140625 74.671875 11.140625 L 79.796875 11.140625 C 80.011719 11.140625 80.222656 11.183594 80.421875 11.269531 C 80.621094 11.355469 80.796875 11.476562 80.949219 11.632812 C 81.101562 11.792969 81.21875 11.972656 81.304688 12.179688 C 81.386719 12.382812 81.429688 12.597656 81.429688 12.820312 C 81.429688 12.992188 81.394531 13.15625 81.332031 13.316406 C 81.269531 13.472656 81.175781 13.613281 81.058594 13.734375 C 80.941406 13.855469 80.804688 13.949219 80.652344 14.015625 C 80.496094 14.078125 80.335938 14.113281 80.171875 14.113281 C 80.042969 14.113281 79.917969 14.085938 79.800781 14.035156 C 79.679688 13.984375 79.574219 13.914062 79.484375 13.820312 C 79.394531 13.726562 79.324219 13.617188 79.273438 13.496094 C 79.222656 13.371094 79.199219 13.246094 79.199219 13.113281 C 79.199219 12.910156 79.269531 12.734375 79.410156 12.589844 C 79.550781 12.449219 79.722656 12.375 79.917969 12.375 L 79.972656 12.375 C 79.796875 12.378906 79.648438 12.449219 79.527344 12.578125 C 79.40625 12.710938 79.347656 12.867188 79.351562 13.046875 C 79.351562 13.253906 79.421875 13.433594 79.566406 13.582031 C 79.707031 13.730469 79.882812 13.800781 80.082031 13.800781 C 80.320312 13.804688 80.523438 13.71875 80.691406 13.546875 C 80.859375 13.375 80.941406 13.164062 80.941406 12.921875 C 80.941406 12.785156 80.917969 12.652344 80.867188 12.523438 C 80.816406 12.394531 80.742188 12.285156 80.648438 12.1875 C 80.550781 12.089844 80.445312 12.011719 80.320312 11.960938 C 80.195312 11.90625 80.066406 11.882812 79.933594 11.882812 C 79.773438 11.882812 79.621094 11.914062 79.472656 11.976562 C 79.324219 12.039062 79.195312 12.125 79.082031 12.242188 C 78.96875 12.359375 78.882812 12.492188 78.820312 12.644531 C 78.761719 12.796875 78.730469 12.953125 78.726562 13.117188 C 78.726562 13.316406 78.765625 13.507812 78.839844 13.691406 C 78.914062 13.875 79.019531 14.039062 79.15625 14.179688 C 79.292969 14.320312 79.449219 14.425781 79.628906 14.503906 C 79.804688 14.578125 79.992188 14.617188 80.183594 14.617188 C 80.417969 14.617188 80.636719 14.574219 80.851562 14.480469 C 81.066406 14.390625 81.253906 14.261719 81.417969 14.09375 C 81.582031 13.925781 81.707031 13.730469 81.796875 13.511719 C 81.882812 13.292969 81.929688 13.0625 81.929688 12.828125 C 81.929688 12.535156 81.875 12.257812 81.765625 11.988281 C 81.660156 11.71875 81.503906 11.480469 81.304688 11.277344 C 81.105469 11.070312 80.875 10.914062 80.613281 10.804688 C 80.351562 10.691406 80.078125 10.636719 79.796875 10.640625 Z M 80.457031 12.933594 C 80.457031 13.039062 80.417969 13.125 80.347656 13.199219 C 80.273438 13.273438 80.1875 13.3125 80.082031 13.3125 C 80.015625 13.3125 79.957031 13.289062 79.910156 13.238281 C 79.859375 13.1875 79.835938 13.128906 79.835938 13.058594 C 79.835938 12.953125 79.886719 12.902344 79.988281 12.902344 C 80.054688 12.902344 80.109375 12.878906 80.15625 12.828125 C 80.207031 12.78125 80.230469 12.71875 80.230469 12.652344 C 80.226562 12.542969 80.179688 12.464844 80.082031 12.421875 C 80.332031 12.496094 80.457031 12.664062 80.457031 12.933594 Z M 80.457031 12.933594 "
            fill-opacity="1" fill-rule="nonzero" />
    </g>
    <g clip-path="url(#084bbb1e0e)">
        <path fill="#ffd034"
            d="M 79.75 7.300781 C 79.75 7.0625 79.703125 6.835938 79.617188 6.617188 C 79.527344 6.394531 79.402344 6.203125 79.238281 6.035156 C 79.074219 5.867188 78.886719 5.734375 78.671875 5.644531 C 78.457031 5.554688 78.234375 5.511719 78.003906 5.511719 C 77.8125 5.511719 77.625 5.546875 77.445312 5.625 C 77.269531 5.699219 77.109375 5.808594 76.972656 5.949219 C 76.835938 6.089844 76.730469 6.253906 76.65625 6.4375 C 76.585938 6.621094 76.546875 6.8125 76.546875 7.011719 C 76.546875 7.175781 76.578125 7.332031 76.636719 7.484375 C 76.699219 7.636719 76.785156 7.769531 76.898438 7.886719 C 77.011719 8.003906 77.140625 8.09375 77.289062 8.15625 C 77.433594 8.21875 77.585938 8.253906 77.746094 8.253906 C 77.882812 8.253906 78.011719 8.226562 78.132812 8.171875 C 78.257812 8.121094 78.367188 8.046875 78.460938 7.949219 C 78.554688 7.851562 78.628906 7.738281 78.679688 7.609375 C 78.730469 7.484375 78.757812 7.351562 78.757812 7.210938 C 78.757812 6.96875 78.675781 6.761719 78.507812 6.589844 C 78.339844 6.417969 78.136719 6.332031 77.902344 6.332031 C 77.699219 6.328125 77.527344 6.402344 77.382812 6.550781 C 77.238281 6.699219 77.167969 6.878906 77.167969 7.085938 C 77.167969 7.265625 77.230469 7.417969 77.355469 7.546875 C 77.476562 7.675781 77.625 7.738281 77.800781 7.738281 C 77.777344 7.738281 77.753906 7.738281 77.730469 7.738281 C 77.535156 7.738281 77.367188 7.664062 77.226562 7.519531 C 77.085938 7.375 77.015625 7.199219 77.019531 6.996094 C 77.019531 6.863281 77.042969 6.738281 77.09375 6.613281 C 77.140625 6.492188 77.210938 6.382812 77.304688 6.289062 C 77.394531 6.195312 77.5 6.121094 77.617188 6.070312 C 77.738281 6.019531 77.859375 5.996094 77.988281 5.996094 C 78.15625 5.996094 78.316406 6.027344 78.46875 6.09375 C 78.625 6.160156 78.761719 6.253906 78.878906 6.375 C 78.996094 6.496094 79.085938 6.632812 79.152344 6.792969 C 79.214844 6.949219 79.246094 7.117188 79.246094 7.285156 C 79.246094 7.507812 79.207031 7.722656 79.121094 7.929688 C 79.039062 8.132812 78.921875 8.316406 78.769531 8.472656 C 78.613281 8.628906 78.4375 8.75 78.238281 8.835938 C 78.039062 8.921875 77.832031 8.964844 77.617188 8.964844 L 72.511719 8.964844 C 72.441406 8.964844 72.386719 8.988281 72.339844 9.035156 C 72.292969 9.085938 72.265625 9.144531 72.265625 9.214844 C 72.265625 9.28125 72.292969 9.339844 72.339844 9.390625 C 72.386719 9.441406 72.441406 9.464844 72.511719 9.464844 L 77.628906 9.464844 C 77.910156 9.464844 78.179688 9.410156 78.4375 9.300781 C 78.695312 9.191406 78.921875 9.035156 79.121094 8.832031 C 79.320312 8.628906 79.472656 8.394531 79.582031 8.132812 C 79.691406 7.867188 79.746094 7.589844 79.75 7.300781 Z M 77.804688 7.21875 C 77.703125 7.21875 77.65625 7.171875 77.660156 7.066406 C 77.660156 6.996094 77.683594 6.9375 77.730469 6.886719 C 77.78125 6.835938 77.839844 6.8125 77.90625 6.8125 C 78.007812 6.8125 78.097656 6.847656 78.167969 6.921875 C 78.242188 6.996094 78.277344 7.085938 78.277344 7.191406 C 78.273438 7.453125 78.148438 7.621094 77.902344 7.691406 C 78.003906 7.652344 78.050781 7.574219 78.046875 7.460938 C 78.046875 7.308594 77.96875 7.226562 77.820312 7.21875 Z M 77.804688 7.21875 "
            fill-opacity="1" fill-rule="nonzero" />
    </g>
    <g clip-path="url(#e68e669f3f)">
        <path fill="#209d5c"
            d="M 89.660156 14.296875 C 89.382812 14.296875 89.117188 14.351562 88.863281 14.460938 C 88.605469 14.566406 88.378906 14.722656 88.183594 14.925781 C 87.988281 15.125 87.835938 15.359375 87.730469 15.621094 C 87.625 15.882812 87.570312 16.15625 87.570312 16.441406 C 87.570312 16.675781 87.617188 16.902344 87.703125 17.121094 C 87.789062 17.335938 87.914062 17.527344 88.078125 17.695312 C 88.238281 17.859375 88.421875 17.988281 88.632812 18.078125 C 88.84375 18.167969 89.0625 18.214844 89.289062 18.214844 C 89.480469 18.214844 89.660156 18.175781 89.835938 18.101562 C 90.011719 18.027344 90.164062 17.921875 90.296875 17.785156 C 90.429688 17.648438 90.535156 17.488281 90.605469 17.308594 C 90.679688 17.128906 90.714844 16.941406 90.714844 16.746094 C 90.714844 16.585938 90.683594 16.429688 90.625 16.28125 C 90.5625 16.132812 90.476562 16 90.367188 15.882812 C 90.253906 15.769531 90.128906 15.683594 89.984375 15.621094 C 89.835938 15.558594 89.6875 15.527344 89.527344 15.527344 C 89.394531 15.527344 89.269531 15.550781 89.144531 15.601562 C 89.023438 15.65625 88.914062 15.730469 88.820312 15.824219 C 88.726562 15.921875 88.65625 16.03125 88.605469 16.160156 C 88.554688 16.285156 88.527344 16.417969 88.527344 16.550781 C 88.527344 16.792969 88.609375 17 88.777344 17.171875 C 88.941406 17.34375 89.144531 17.429688 89.378906 17.429688 C 89.535156 17.425781 89.617188 17.339844 89.621094 17.179688 C 89.621094 17.109375 89.597656 17.050781 89.550781 17 C 89.503906 16.953125 89.445312 16.929688 89.378906 16.929688 C 89.277344 16.925781 89.191406 16.890625 89.121094 16.816406 C 89.050781 16.742188 89.015625 16.65625 89.015625 16.550781 C 89.015625 16.40625 89.066406 16.28125 89.167969 16.179688 C 89.265625 16.078125 89.386719 16.027344 89.527344 16.027344 C 89.722656 16.027344 89.886719 16.097656 90.023438 16.238281 C 90.160156 16.378906 90.226562 16.550781 90.226562 16.746094 C 90.226562 17.015625 90.136719 17.242188 89.953125 17.429688 C 89.769531 17.617188 89.550781 17.710938 89.289062 17.714844 C 89.128906 17.714844 88.96875 17.679688 88.820312 17.617188 C 88.667969 17.550781 88.535156 17.460938 88.417969 17.339844 C 88.300781 17.222656 88.214844 17.085938 88.152344 16.929688 C 88.089844 16.773438 88.058594 16.609375 88.058594 16.441406 C 88.058594 16.222656 88.097656 16.015625 88.179688 15.8125 C 88.261719 15.609375 88.378906 15.433594 88.527344 15.277344 C 88.679688 15.125 88.851562 15.003906 89.046875 14.921875 C 89.242188 14.835938 89.449219 14.796875 89.660156 14.796875 C 89.933594 14.796875 90.195312 14.851562 90.449219 14.957031 C 90.699219 15.066406 90.921875 15.21875 91.117188 15.417969 C 91.308594 15.617188 91.457031 15.847656 91.5625 16.105469 C 91.667969 16.367188 91.71875 16.636719 91.71875 16.917969 C 91.71875 17.277344 91.652344 17.625 91.519531 17.957031 C 91.386719 18.289062 91.195312 18.585938 90.945312 18.839844 C 90.699219 19.09375 90.414062 19.289062 90.089844 19.429688 C 89.769531 19.566406 89.433594 19.636719 89.082031 19.636719 L 81.199219 19.636719 C 81.039062 19.636719 80.957031 19.722656 80.953125 19.886719 C 80.953125 19.953125 80.980469 20.011719 81.027344 20.0625 C 81.074219 20.109375 81.128906 20.136719 81.199219 20.136719 L 89.082031 20.136719 C 89.496094 20.136719 89.894531 20.054688 90.277344 19.890625 C 90.660156 19.726562 90.996094 19.496094 91.289062 19.191406 C 91.582031 18.890625 91.808594 18.542969 91.96875 18.148438 C 92.125 17.753906 92.207031 17.34375 92.207031 16.917969 C 92.203125 16.570312 92.140625 16.234375 92.011719 15.914062 C 91.882812 15.59375 91.695312 15.3125 91.457031 15.066406 C 91.21875 14.820312 90.945312 14.628906 90.632812 14.496094 C 90.320312 14.363281 89.996094 14.296875 89.660156 14.296875 Z M 89.660156 14.296875 "
            fill-opacity="1" fill-rule="nonzero" />
    </g>
    <g clip-path="url(#85ab57002e)">
        <path fill="#209d5c"
            d="M 87.386719 20.460938 L 82.261719 20.460938 C 82.101562 20.464844 82.023438 20.546875 82.019531 20.710938 C 82.019531 20.78125 82.042969 20.839844 82.089844 20.886719 C 82.136719 20.9375 82.195312 20.960938 82.261719 20.960938 L 87.386719 20.960938 C 87.601562 20.960938 87.8125 21.003906 88.011719 21.089844 C 88.210938 21.175781 88.386719 21.296875 88.539062 21.457031 C 88.691406 21.613281 88.808594 21.792969 88.894531 22 C 88.976562 22.207031 89.019531 22.417969 89.019531 22.640625 C 89.019531 22.8125 88.984375 22.980469 88.921875 23.136719 C 88.859375 23.296875 88.765625 23.433594 88.648438 23.554688 C 88.53125 23.675781 88.394531 23.769531 88.242188 23.835938 C 88.085938 23.902344 87.925781 23.933594 87.761719 23.933594 C 87.632812 23.933594 87.507812 23.910156 87.390625 23.859375 C 87.269531 23.808594 87.164062 23.734375 87.074219 23.640625 C 86.984375 23.546875 86.914062 23.4375 86.863281 23.316406 C 86.8125 23.191406 86.789062 23.066406 86.789062 22.933594 C 86.789062 22.730469 86.859375 22.554688 87 22.414062 C 87.140625 22.269531 87.308594 22.195312 87.507812 22.195312 L 87.5625 22.195312 C 87.386719 22.203125 87.238281 22.269531 87.117188 22.398438 C 86.996094 22.53125 86.9375 22.6875 86.941406 22.867188 C 86.941406 23.078125 87.011719 23.253906 87.15625 23.402344 C 87.296875 23.550781 87.46875 23.625 87.671875 23.625 C 87.910156 23.625 88.113281 23.539062 88.28125 23.367188 C 88.449219 23.195312 88.53125 22.988281 88.53125 22.742188 C 88.53125 22.605469 88.507812 22.472656 88.457031 22.34375 C 88.40625 22.21875 88.332031 22.105469 88.238281 22.007812 C 88.140625 21.910156 88.03125 21.832031 87.910156 21.78125 C 87.785156 21.726562 87.65625 21.703125 87.523438 21.703125 C 87.363281 21.703125 87.210938 21.734375 87.0625 21.796875 C 86.914062 21.859375 86.785156 21.949219 86.671875 22.0625 C 86.558594 22.179688 86.472656 22.3125 86.410156 22.464844 C 86.347656 22.617188 86.320312 22.773438 86.316406 22.9375 C 86.316406 23.136719 86.355469 23.328125 86.429688 23.511719 C 86.503906 23.695312 86.609375 23.859375 86.746094 24 C 86.882812 24.140625 87.039062 24.25 87.21875 24.324219 C 87.394531 24.402344 87.582031 24.4375 87.773438 24.4375 C 88.007812 24.4375 88.226562 24.394531 88.441406 24.304688 C 88.65625 24.210938 88.84375 24.082031 89.007812 23.914062 C 89.171875 23.746094 89.296875 23.554688 89.386719 23.332031 C 89.472656 23.113281 89.519531 22.886719 89.519531 22.648438 C 89.519531 22.355469 89.464844 22.078125 89.355469 21.808594 C 89.25 21.539062 89.09375 21.304688 88.894531 21.097656 C 88.695312 20.890625 88.464844 20.734375 88.203125 20.625 C 87.941406 20.515625 87.667969 20.460938 87.386719 20.460938 Z M 88.046875 22.753906 C 88.046875 22.859375 88.007812 22.949219 87.9375 23.023438 C 87.863281 23.097656 87.777344 23.132812 87.671875 23.132812 C 87.605469 23.132812 87.546875 23.109375 87.496094 23.058594 C 87.449219 23.007812 87.425781 22.949219 87.425781 22.878906 C 87.425781 22.773438 87.476562 22.722656 87.574219 22.722656 C 87.644531 22.722656 87.699219 22.699219 87.746094 22.648438 C 87.796875 22.601562 87.820312 22.542969 87.820312 22.472656 C 87.816406 22.363281 87.769531 22.285156 87.671875 22.242188 C 87.921875 22.316406 88.046875 22.488281 88.046875 22.753906 Z M 88.046875 22.753906 "
            fill-opacity="1" fill-rule="nonzero" />
    </g>
    <g clip-path="url(#4a3ab894e4)">
        <path fill="#209d5c"
            d="M 87.339844 17.121094 C 87.339844 16.886719 87.292969 16.65625 87.207031 16.4375 C 87.117188 16.214844 86.992188 16.023438 86.828125 15.855469 C 86.664062 15.6875 86.476562 15.558594 86.261719 15.464844 C 86.046875 15.375 85.824219 15.332031 85.59375 15.332031 C 85.402344 15.332031 85.214844 15.371094 85.035156 15.445312 C 84.859375 15.523438 84.699219 15.628906 84.5625 15.769531 C 84.425781 15.910156 84.320312 16.074219 84.246094 16.257812 C 84.171875 16.441406 84.136719 16.632812 84.136719 16.832031 C 84.136719 16.996094 84.167969 17.15625 84.226562 17.304688 C 84.289062 17.457031 84.375 17.59375 84.488281 17.707031 C 84.601562 17.824219 84.730469 17.914062 84.878906 17.976562 C 85.023438 18.042969 85.175781 18.074219 85.335938 18.074219 C 85.46875 18.074219 85.597656 18.046875 85.722656 17.996094 C 85.847656 17.941406 85.957031 17.867188 86.050781 17.769531 C 86.144531 17.671875 86.21875 17.558594 86.269531 17.429688 C 86.320312 17.304688 86.347656 17.171875 86.347656 17.03125 C 86.347656 16.789062 86.261719 16.582031 86.097656 16.410156 C 85.929688 16.238281 85.726562 16.152344 85.492188 16.152344 C 85.289062 16.152344 85.117188 16.222656 84.972656 16.371094 C 84.828125 16.519531 84.757812 16.699219 84.757812 16.90625 C 84.757812 17.085938 84.820312 17.242188 84.945312 17.367188 C 85.066406 17.496094 85.214844 17.558594 85.390625 17.558594 C 85.367188 17.5625 85.34375 17.5625 85.320312 17.558594 C 85.125 17.558594 84.953125 17.484375 84.816406 17.339844 C 84.675781 17.195312 84.605469 17.023438 84.609375 16.816406 C 84.609375 16.683594 84.632812 16.558594 84.683594 16.433594 C 84.730469 16.3125 84.800781 16.203125 84.890625 16.109375 C 84.984375 16.015625 85.089844 15.945312 85.207031 15.894531 C 85.328125 15.84375 85.449219 15.816406 85.578125 15.816406 C 85.746094 15.816406 85.90625 15.851562 86.058594 15.914062 C 86.214844 15.980469 86.347656 16.074219 86.46875 16.195312 C 86.585938 16.316406 86.675781 16.457031 86.742188 16.613281 C 86.804688 16.773438 86.835938 16.9375 86.835938 17.109375 C 86.835938 17.332031 86.796875 17.542969 86.710938 17.75 C 86.628906 17.957031 86.511719 18.136719 86.359375 18.292969 C 86.203125 18.449219 86.027344 18.570312 85.828125 18.65625 C 85.628906 18.742188 85.421875 18.785156 85.207031 18.785156 L 80.101562 18.785156 C 80.03125 18.785156 79.976562 18.808594 79.929688 18.859375 C 79.878906 18.90625 79.855469 18.964844 79.855469 19.035156 C 79.855469 19.105469 79.878906 19.164062 79.929688 19.210938 C 79.976562 19.261719 80.03125 19.285156 80.101562 19.285156 L 85.21875 19.285156 C 85.5 19.285156 85.769531 19.230469 86.027344 19.121094 C 86.285156 19.011719 86.511719 18.855469 86.710938 18.652344 C 86.910156 18.449219 87.0625 18.214844 87.171875 17.953125 C 87.28125 17.6875 87.335938 17.410156 87.339844 17.121094 Z M 85.394531 17.039062 C 85.292969 17.042969 85.246094 16.992188 85.25 16.886719 C 85.25 16.816406 85.273438 16.757812 85.320312 16.707031 C 85.371094 16.65625 85.429688 16.632812 85.496094 16.632812 C 85.597656 16.632812 85.6875 16.667969 85.757812 16.742188 C 85.828125 16.816406 85.867188 16.90625 85.867188 17.011719 C 85.863281 17.273438 85.738281 17.441406 85.492188 17.511719 C 85.59375 17.472656 85.640625 17.394531 85.636719 17.28125 C 85.636719 17.128906 85.558594 17.046875 85.410156 17.039062 Z M 85.394531 17.039062 "
            fill-opacity="1" fill-rule="nonzero" />
    </g>
    <g clip-path="url(#23754497b7)">
        <path fill="#2b70e4"
            d="M 95.796875 4.683594 C 95.523438 4.683594 95.253906 4.734375 95 4.84375 C 94.746094 4.953125 94.519531 5.109375 94.324219 5.308594 C 94.128906 5.511719 93.976562 5.742188 93.871094 6.007812 C 93.761719 6.269531 93.710938 6.542969 93.710938 6.828125 C 93.710938 7.0625 93.753906 7.289062 93.839844 7.503906 C 93.929688 7.722656 94.054688 7.914062 94.214844 8.078125 C 94.375 8.246094 94.5625 8.375 94.773438 8.464844 C 94.980469 8.554688 95.199219 8.597656 95.429688 8.601562 C 95.617188 8.601562 95.800781 8.5625 95.972656 8.488281 C 96.148438 8.414062 96.300781 8.308594 96.433594 8.171875 C 96.570312 8.03125 96.671875 7.875 96.742188 7.695312 C 96.816406 7.515625 96.851562 7.328125 96.851562 7.132812 C 96.851562 6.972656 96.820312 6.816406 96.761719 6.667969 C 96.703125 6.515625 96.617188 6.386719 96.503906 6.269531 C 96.394531 6.15625 96.265625 6.066406 96.121094 6.003906 C 95.976562 5.945312 95.824219 5.914062 95.667969 5.914062 C 95.535156 5.910156 95.40625 5.9375 95.285156 5.988281 C 95.160156 6.042969 95.054688 6.113281 94.960938 6.210938 C 94.867188 6.308594 94.792969 6.417969 94.742188 6.542969 C 94.691406 6.671875 94.667969 6.800781 94.667969 6.9375 C 94.667969 7.179688 94.75 7.386719 94.914062 7.558594 C 95.082031 7.730469 95.28125 7.8125 95.515625 7.8125 C 95.675781 7.8125 95.757812 7.726562 95.757812 7.5625 C 95.757812 7.496094 95.734375 7.4375 95.6875 7.386719 C 95.640625 7.339844 95.582031 7.3125 95.515625 7.3125 C 95.417969 7.3125 95.332031 7.273438 95.261719 7.203125 C 95.1875 7.128906 95.152344 7.042969 95.152344 6.9375 C 95.152344 6.792969 95.203125 6.667969 95.304688 6.566406 C 95.40625 6.464844 95.527344 6.414062 95.667969 6.414062 C 95.859375 6.414062 96.023438 6.484375 96.160156 6.625 C 96.296875 6.765625 96.363281 6.933594 96.367188 7.132812 C 96.363281 7.398438 96.273438 7.628906 96.089844 7.816406 C 95.90625 8.003906 95.6875 8.097656 95.429688 8.097656 C 95.265625 8.097656 95.109375 8.066406 94.957031 8.003906 C 94.804688 7.9375 94.671875 7.847656 94.554688 7.726562 C 94.441406 7.609375 94.351562 7.46875 94.289062 7.316406 C 94.226562 7.160156 94.195312 6.996094 94.195312 6.828125 C 94.195312 6.609375 94.238281 6.398438 94.320312 6.199219 C 94.398438 5.996094 94.515625 5.816406 94.667969 5.664062 C 94.816406 5.507812 94.988281 5.390625 95.1875 5.308594 C 95.382812 5.222656 95.585938 5.183594 95.796875 5.183594 C 96.070312 5.183594 96.332031 5.234375 96.585938 5.34375 C 96.839844 5.453125 97.0625 5.605469 97.253906 5.804688 C 97.449219 6.003906 97.597656 6.230469 97.699219 6.492188 C 97.804688 6.75 97.859375 7.023438 97.859375 7.304688 C 97.859375 7.664062 97.789062 8.011719 97.65625 8.34375 C 97.523438 8.675781 97.332031 8.96875 97.085938 9.226562 C 96.835938 9.480469 96.550781 9.675781 96.230469 9.8125 C 95.90625 9.953125 95.570312 10.019531 95.21875 10.019531 L 87.335938 10.019531 C 87.175781 10.023438 87.097656 10.109375 87.09375 10.269531 C 87.09375 10.339844 87.117188 10.398438 87.164062 10.449219 C 87.210938 10.496094 87.269531 10.519531 87.335938 10.519531 L 95.21875 10.519531 C 95.632812 10.519531 96.03125 10.441406 96.414062 10.277344 C 96.796875 10.113281 97.136719 9.878906 97.429688 9.578125 C 97.722656 9.277344 97.949219 8.929688 98.105469 8.535156 C 98.265625 8.140625 98.34375 7.730469 98.34375 7.304688 C 98.34375 6.957031 98.277344 6.621094 98.148438 6.300781 C 98.019531 5.980469 97.835938 5.695312 97.597656 5.449219 C 97.359375 5.207031 97.082031 5.015625 96.769531 4.882812 C 96.460938 4.75 96.136719 4.683594 95.796875 4.683594 Z M 95.796875 4.683594 "
            fill-opacity="1" fill-rule="nonzero" />
    </g>
    <g clip-path="url(#a3620fa226)">
        <path fill="#2b70e4"
            d="M 93.523438 10.847656 L 88.398438 10.847656 C 88.242188 10.851562 88.160156 10.933594 88.15625 11.097656 C 88.15625 11.167969 88.179688 11.226562 88.226562 11.273438 C 88.277344 11.324219 88.332031 11.347656 88.398438 11.347656 L 93.523438 11.347656 C 93.742188 11.347656 93.949219 11.390625 94.148438 11.476562 C 94.347656 11.5625 94.523438 11.683594 94.675781 11.839844 C 94.832031 12 94.949219 12.179688 95.03125 12.386719 C 95.113281 12.589844 95.15625 12.804688 95.15625 13.027344 C 95.15625 13.199219 95.125 13.363281 95.058594 13.523438 C 94.996094 13.679688 94.90625 13.820312 94.785156 13.941406 C 94.667969 14.0625 94.53125 14.15625 94.378906 14.222656 C 94.226562 14.285156 94.066406 14.320312 93.898438 14.320312 C 93.769531 14.320312 93.644531 14.292969 93.527344 14.242188 C 93.40625 14.191406 93.304688 14.121094 93.210938 14.027344 C 93.121094 13.933594 93.050781 13.824219 93 13.703125 C 92.953125 13.578125 92.925781 13.453125 92.925781 13.320312 C 92.929688 13.113281 93 12.941406 93.140625 12.796875 C 93.28125 12.65625 93.449219 12.582031 93.644531 12.582031 L 93.699219 12.582031 C 93.523438 12.585938 93.375 12.65625 93.253906 12.785156 C 93.132812 12.917969 93.074219 13.074219 93.078125 13.253906 C 93.078125 13.460938 93.148438 13.640625 93.292969 13.789062 C 93.4375 13.933594 93.609375 14.007812 93.8125 14.007812 C 94.046875 14.011719 94.25 13.925781 94.417969 13.753906 C 94.585938 13.582031 94.671875 13.371094 94.671875 13.128906 C 94.671875 12.992188 94.644531 12.859375 94.59375 12.730469 C 94.542969 12.601562 94.46875 12.488281 94.375 12.394531 C 94.28125 12.296875 94.171875 12.21875 94.046875 12.167969 C 93.921875 12.113281 93.792969 12.085938 93.660156 12.085938 C 93.5 12.085938 93.347656 12.117188 93.199219 12.183594 C 93.054688 12.246094 92.921875 12.332031 92.808594 12.449219 C 92.699219 12.566406 92.609375 12.699219 92.550781 12.851562 C 92.488281 13 92.457031 13.160156 92.457031 13.324219 C 92.457031 13.523438 92.492188 13.714844 92.566406 13.898438 C 92.640625 14.082031 92.746094 14.246094 92.882812 14.386719 C 93.019531 14.527344 93.175781 14.632812 93.355469 14.710938 C 93.535156 14.785156 93.71875 14.824219 93.914062 14.824219 C 94.144531 14.824219 94.367188 14.78125 94.578125 14.6875 C 94.792969 14.597656 94.980469 14.46875 95.144531 14.300781 C 95.308594 14.132812 95.433594 13.9375 95.523438 13.71875 C 95.613281 13.5 95.65625 13.269531 95.65625 13.035156 C 95.65625 12.742188 95.601562 12.464844 95.496094 12.195312 C 95.386719 11.925781 95.230469 11.6875 95.03125 11.484375 C 94.832031 11.277344 94.601562 11.121094 94.339844 11.011719 C 94.078125 10.898438 93.808594 10.84375 93.523438 10.847656 Z M 94.183594 13.136719 C 94.183594 13.242188 94.148438 13.332031 94.074219 13.40625 C 94 13.480469 93.914062 13.519531 93.8125 13.519531 C 93.742188 13.519531 93.683594 13.492188 93.636719 13.445312 C 93.585938 13.394531 93.5625 13.335938 93.5625 13.265625 C 93.5625 13.160156 93.613281 13.109375 93.714844 13.109375 C 93.78125 13.109375 93.839844 13.085938 93.886719 13.035156 C 93.933594 12.988281 93.957031 12.925781 93.957031 12.859375 C 93.957031 12.75 93.90625 12.671875 93.8125 12.628906 C 94.058594 12.703125 94.183594 12.871094 94.183594 13.136719 Z M 94.183594 13.136719 "
            fill-opacity="1" fill-rule="nonzero" />
    </g>
    <g clip-path="url(#8e46286912)">
        <path fill="#2b70e4"
            d="M 93.476562 7.507812 C 93.476562 7.269531 93.433594 7.042969 93.34375 6.820312 C 93.253906 6.601562 93.128906 6.410156 92.964844 6.242188 C 92.800781 6.074219 92.613281 5.941406 92.398438 5.851562 C 92.183594 5.761719 91.964844 5.71875 91.730469 5.71875 C 91.539062 5.71875 91.351562 5.753906 91.175781 5.832031 C 90.996094 5.90625 90.839844 6.015625 90.703125 6.15625 C 90.566406 6.296875 90.460938 6.460938 90.386719 6.644531 C 90.3125 6.828125 90.273438 7.019531 90.273438 7.21875 C 90.273438 7.382812 90.304688 7.539062 90.367188 7.691406 C 90.425781 7.84375 90.511719 7.976562 90.625 8.09375 C 90.738281 8.210938 90.867188 8.300781 91.015625 8.363281 C 91.164062 8.425781 91.316406 8.460938 91.476562 8.460938 C 91.609375 8.460938 91.738281 8.433594 91.863281 8.378906 C 91.984375 8.328125 92.09375 8.253906 92.1875 8.15625 C 92.285156 8.058594 92.355469 7.945312 92.40625 7.816406 C 92.460938 7.691406 92.484375 7.558594 92.484375 7.417969 C 92.484375 7.175781 92.402344 6.96875 92.234375 6.796875 C 92.066406 6.625 91.867188 6.539062 91.628906 6.539062 C 91.425781 6.535156 91.253906 6.609375 91.109375 6.757812 C 90.964844 6.90625 90.894531 7.085938 90.898438 7.292969 C 90.898438 7.472656 90.957031 7.625 91.082031 7.753906 C 91.203125 7.878906 91.355469 7.945312 91.527344 7.945312 C 91.503906 7.945312 91.484375 7.945312 91.460938 7.945312 C 91.261719 7.945312 91.09375 7.871094 90.953125 7.726562 C 90.8125 7.582031 90.746094 7.40625 90.746094 7.203125 C 90.746094 7.070312 90.769531 6.941406 90.820312 6.820312 C 90.871094 6.699219 90.941406 6.589844 91.03125 6.496094 C 91.121094 6.402344 91.226562 6.328125 91.347656 6.277344 C 91.464844 6.226562 91.589844 6.203125 91.71875 6.203125 C 91.882812 6.203125 92.042969 6.234375 92.199219 6.300781 C 92.351562 6.367188 92.488281 6.460938 92.605469 6.582031 C 92.722656 6.703125 92.8125 6.839844 92.878906 7 C 92.941406 7.15625 92.976562 7.324219 92.976562 7.492188 C 92.976562 7.714844 92.933594 7.929688 92.851562 8.136719 C 92.765625 8.339844 92.648438 8.523438 92.496094 8.679688 C 92.34375 8.835938 92.167969 8.957031 91.96875 9.042969 C 91.765625 9.128906 91.558594 9.171875 91.34375 9.171875 L 86.238281 9.171875 C 86.171875 9.171875 86.113281 9.195312 86.066406 9.242188 C 86.019531 9.292969 85.996094 9.351562 85.996094 9.421875 C 85.996094 9.488281 86.019531 9.546875 86.066406 9.597656 C 86.113281 9.644531 86.171875 9.671875 86.238281 9.671875 L 91.359375 9.671875 C 91.636719 9.671875 91.90625 9.617188 92.164062 9.507812 C 92.421875 9.398438 92.652344 9.242188 92.847656 9.039062 C 93.046875 8.835938 93.199219 8.601562 93.308594 8.335938 C 93.417969 8.074219 93.472656 7.796875 93.476562 7.507812 Z M 91.53125 7.425781 C 91.433594 7.425781 91.382812 7.378906 91.386719 7.273438 C 91.386719 7.203125 91.410156 7.144531 91.460938 7.09375 C 91.507812 7.042969 91.566406 7.019531 91.636719 7.019531 C 91.738281 7.019531 91.824219 7.054688 91.894531 7.128906 C 91.96875 7.203125 92.003906 7.292969 92.003906 7.398438 C 92 7.660156 91.875 7.828125 91.628906 7.898438 C 91.730469 7.859375 91.777344 7.78125 91.777344 7.667969 C 91.773438 7.515625 91.695312 7.433594 91.546875 7.425781 Z M 91.53125 7.425781 "
            fill-opacity="1" fill-rule="nonzero" />
    </g>
</svg>