<svg xmlns="http://www.w3.org/2000/svg" xmlns:xlink="http://www.w3.org/1999/xlink" width="140" zoomAndPan="magnify" viewBox="0 0 104.88 30.000001" height="40" preserveAspectRatio="xMidYMid meet" version="1.0"><defs><clipPath id="35a0ba6949"><path d="M 31.761719 2.902344 L 73.109375 2.902344 L 73.109375 26.128906 L 31.761719 26.128906 Z M 31.761719 2.902344 " clip-rule="nonzero"/></clipPath><clipPath id="64845ef2b3"><path d="M 12 8.199219 L 27.449219 8.199219 L 27.449219 16 L 12 16 Z M 12 8.199219 " clip-rule="nonzero"/></clipPath><clipPath id="3e369eaad9"><path d="M 14 15 L 24 15 L 24 20.539062 L 14 20.539062 Z M 14 15 " clip-rule="nonzero"/></clipPath><clipPath id="b1ab83653e"><path d="M 11.480469 9 L 22 9 L 22 15 L 11.480469 15 Z M 11.480469 9 " clip-rule="nonzero"/></clipPath><clipPath id="774625fec7"><path d="M 78 8.199219 L 93.441406 8.199219 L 93.441406 16 L 78 16 Z M 78 8.199219 " clip-rule="nonzero"/></clipPath><clipPath id="6821babffd"><path d="M 80 15 L 90 15 L 90 20.539062 L 80 20.539062 Z M 80 15 " clip-rule="nonzero"/></clipPath><clipPath id="1bfa5c3b00"><path d="M 77.472656 9 L 88 9 L 88 15 L 77.472656 15 Z M 77.472656 9 " clip-rule="nonzero"/></clipPath></defs><g clip-path="url(#35a0ba6949)"><path fill="#000000" d="M 40.03125 9.507812 C 44.574219 9.507812 48.277344 13.175781 48.324219 17.707031 L 49.488281 17.707031 L 45.835938 4.714844 L 43.875 4.714844 L 43.875 3.292969 C 43.875 3.101562 44.03125 2.945312 44.222656 2.945312 C 44.414062 2.945312 44.570312 3.101562 44.570312 3.292969 L 44.570312 4.015625 L 47.976562 4.015625 C 48.171875 4.015625 48.324219 4.171875 48.324219 4.363281 C 48.324219 4.554688 48.171875 4.710938 47.976562 4.710938 L 46.558594 4.710938 L 47.09375 6.621094 L 55.371094 6.621094 C 55.5625 6.621094 55.71875 6.777344 55.71875 6.96875 C 55.71875 7.160156 55.5625 7.316406 55.371094 7.316406 L 53.878906 7.316406 C 54.464844 9.332031 55.265625 11.09375 56.261719 12.570312 L 58.648438 4.714844 L 57.304688 4.714844 C 57.113281 4.714844 56.957031 4.558594 56.957031 4.367188 C 56.957031 4.175781 57.113281 4.019531 57.304688 4.019531 L 59.113281 4.019531 C 59.113281 4.019531 59.117188 4.019531 59.117188 4.019531 L 60.699219 4.019531 C 61.605469 4.019531 62.421875 4.542969 62.777344 5.359375 C 62.980469 5.820312 62.996094 6.273438 62.824219 6.707031 C 62.460938 7.621094 61.367188 8.089844 61.324219 8.109375 C 61.277344 8.125 61.234375 8.132812 61.1875 8.132812 C 61.054688 8.132812 60.925781 8.054688 60.867188 7.921875 C 60.792969 7.746094 60.875 7.542969 61.050781 7.464844 C 61.058594 7.460938 61.921875 7.085938 62.179688 6.445312 C 62.28125 6.1875 62.269531 5.921875 62.140625 5.636719 C 61.894531 5.074219 61.328125 4.710938 60.699219 4.710938 L 59.375 4.710938 L 56.773438 13.285156 C 56.980469 13.550781 57.195312 13.808594 57.414062 14.054688 C 58.785156 11.359375 61.585938 9.507812 64.816406 9.507812 C 69.390625 9.507812 73.109375 13.226562 73.109375 17.796875 C 73.109375 22.367188 69.390625 26.085938 64.816406 26.085938 C 60.242188 26.085938 56.519531 22.367188 56.519531 17.796875 C 56.519531 16.722656 56.726562 15.695312 57.101562 14.753906 C 56.792969 14.429688 56.5 14.082031 56.21875 13.71875 C 54.894531 12 53.863281 9.847656 53.152344 7.316406 L 47.289062 7.316406 L 50.207031 17.703125 L 50.914062 17.703125 C 51.105469 17.703125 51.261719 17.859375 51.261719 18.050781 C 51.261719 18.242188 51.105469 18.398438 50.914062 18.398438 L 49.945312 18.398438 C 49.945312 18.398438 49.945312 18.398438 49.941406 18.398438 L 48.304688 18.398438 C 47.992188 22.6875 44.402344 26.085938 40.03125 26.085938 C 35.457031 26.085938 31.738281 22.367188 31.738281 17.792969 C 31.738281 13.226562 35.460938 9.507812 40.03125 9.507812 Z M 64.816406 25.390625 C 69.003906 25.390625 72.414062 21.984375 72.414062 17.796875 C 72.414062 13.609375 69.003906 10.203125 64.816406 10.203125 C 61.769531 10.203125 59.136719 12.003906 57.925781 14.597656 C 58.679688 15.34375 59.507812 15.964844 60.398438 16.457031 C 61.59375 17.117188 62.699219 17.425781 63.503906 17.574219 C 63.613281 16.945312 64.15625 16.46875 64.816406 16.46875 C 65.550781 16.46875 66.144531 17.0625 66.144531 17.796875 C 66.144531 18.53125 65.550781 19.125 64.816406 19.125 C 64.257812 19.125 63.78125 18.78125 63.585938 18.296875 C 62.714844 18.160156 61.46875 17.835938 60.101562 17.085938 C 59.21875 16.605469 58.398438 16.003906 57.640625 15.296875 C 57.367188 16.078125 57.21875 16.921875 57.21875 17.796875 C 57.21875 21.984375 60.625 25.390625 64.816406 25.390625 Z M 40.03125 25.390625 C 44.019531 25.390625 47.296875 22.308594 47.605469 18.402344 L 40.160156 18.402344 L 39.691406 16.289062 C 39.652344 16.101562 39.769531 15.917969 39.957031 15.875 C 40.144531 15.832031 40.328125 15.949219 40.371094 16.136719 L 40.71875 17.703125 L 47.628906 17.703125 C 47.578125 13.5625 44.191406 10.203125 40.03125 10.203125 C 35.875 10.203125 32.484375 13.558594 32.4375 17.703125 L 39.265625 17.703125 C 39.457031 17.703125 39.613281 17.859375 39.613281 18.050781 C 39.613281 18.242188 39.457031 18.398438 39.265625 18.398438 L 32.457031 18.398438 C 32.769531 22.308594 36.046875 25.390625 40.03125 25.390625 Z M 40.03125 25.390625 " fill-opacity="1" fill-rule="nonzero"/></g><path fill="#000000" d="M 50.570312 20.144531 C 50.628906 20.1875 51.960938 21.167969 53.539062 20.417969 C 54.648438 19.886719 55.347656 18.726562 55.316406 17.460938 C 55.285156 16.203125 54.71875 15.347656 53.527344 14.765625 C 53.5 14.753906 53.398438 14.714844 53.296875 14.679688 C 52.925781 14.597656 51.710938 14.390625 50.503906 14.890625 L 49.996094 15.101562 L 50.078125 13.492188 C 50.089844 13.300781 50.25 13.148438 50.441406 13.164062 C 50.636719 13.171875 50.785156 13.335938 50.773438 13.527344 L 50.746094 14.074219 C 51.980469 13.722656 53.117188 13.925781 53.46875 14.007812 L 53.507812 14.019531 C 53.578125 14.042969 53.757812 14.105469 53.832031 14.144531 C 55.261719 14.839844 55.976562 15.921875 56.011719 17.445312 C 56.046875 18.988281 55.195312 20.402344 53.839844 21.046875 C 53.296875 21.304688 52.78125 21.398438 52.316406 21.398438 C 51.082031 21.398438 50.199219 20.738281 50.148438 20.699219 C 49.996094 20.582031 49.96875 20.367188 50.085938 20.214844 C 50.199219 20.058594 50.417969 20.027344 50.570312 20.144531 Z M 50.570312 20.144531 " fill-opacity="1" fill-rule="nonzero"/><g clip-path="url(#64845ef2b3)"><path fill="#000000" d="M 24.160156 8.183594 C 23.804688 8.183594 23.460938 8.25 23.128906 8.382812 C 22.796875 8.515625 22.503906 8.703125 22.253906 8.949219 C 22 9.191406 21.804688 9.472656 21.664062 9.792969 C 21.527344 10.113281 21.460938 10.445312 21.457031 10.792969 C 21.460938 11.074219 21.515625 11.351562 21.628906 11.613281 C 21.742188 11.875 21.902344 12.109375 22.113281 12.308594 C 22.320312 12.511719 22.5625 12.667969 22.832031 12.777344 C 23.105469 12.886719 23.390625 12.941406 23.683594 12.941406 C 23.929688 12.941406 24.164062 12.898438 24.386719 12.804688 C 24.613281 12.714844 24.8125 12.585938 24.984375 12.421875 C 25.160156 12.253906 25.292969 12.0625 25.386719 11.84375 C 25.480469 11.625 25.527344 11.398438 25.527344 11.160156 C 25.527344 10.964844 25.488281 10.777344 25.410156 10.59375 C 25.332031 10.414062 25.21875 10.253906 25.078125 10.113281 C 24.933594 9.972656 24.765625 9.867188 24.578125 9.792969 C 24.390625 9.71875 24.195312 9.679688 23.992188 9.679688 C 23.820312 9.679688 23.65625 9.710938 23.496094 9.773438 C 23.339844 9.835938 23.199219 9.925781 23.078125 10.042969 C 22.953125 10.160156 22.859375 10.292969 22.796875 10.445312 C 22.730469 10.601562 22.695312 10.757812 22.695312 10.925781 C 22.695312 11.066406 22.726562 11.203125 22.78125 11.332031 C 22.835938 11.460938 22.914062 11.578125 23.019531 11.675781 C 23.121094 11.777344 23.242188 11.851562 23.375 11.90625 C 23.511719 11.960938 23.652344 11.988281 23.796875 11.988281 C 23.882812 11.988281 23.957031 11.957031 24.015625 11.898438 C 24.078125 11.839844 24.109375 11.765625 24.109375 11.683594 C 24.109375 11.601562 24.082031 11.527344 24.019531 11.46875 C 23.957031 11.410156 23.882812 11.378906 23.796875 11.378906 C 23.667969 11.378906 23.558594 11.332031 23.464844 11.246094 C 23.375 11.15625 23.328125 11.050781 23.324219 10.925781 C 23.328125 10.75 23.394531 10.597656 23.523438 10.472656 C 23.652344 10.347656 23.808594 10.285156 23.992188 10.285156 C 24.242188 10.289062 24.453125 10.375 24.628906 10.546875 C 24.804688 10.714844 24.894531 10.921875 24.898438 11.160156 C 24.894531 11.316406 24.863281 11.464844 24.804688 11.609375 C 24.742188 11.753906 24.652344 11.878906 24.539062 11.988281 C 24.425781 12.097656 24.296875 12.183594 24.148438 12.242188 C 24 12.304688 23.84375 12.332031 23.683594 12.335938 C 23.472656 12.335938 23.269531 12.296875 23.074219 12.21875 C 22.878906 12.136719 22.703125 12.027344 22.554688 11.882812 C 22.40625 11.738281 22.289062 11.570312 22.207031 11.382812 C 22.128906 11.191406 22.085938 10.996094 22.085938 10.792969 C 22.085938 10.527344 22.140625 10.269531 22.246094 10.027344 C 22.351562 9.78125 22.503906 9.566406 22.695312 9.378906 C 22.890625 9.191406 23.117188 9.046875 23.367188 8.945312 C 23.621094 8.84375 23.886719 8.792969 24.160156 8.792969 C 24.515625 8.792969 24.855469 8.859375 25.179688 8.988281 C 25.507812 9.121094 25.796875 9.304688 26.046875 9.546875 C 26.296875 9.789062 26.488281 10.066406 26.625 10.382812 C 26.757812 10.699219 26.828125 11.027344 26.828125 11.367188 C 26.828125 11.804688 26.742188 12.226562 26.566406 12.628906 C 26.394531 13.035156 26.148438 13.390625 25.828125 13.699219 C 25.507812 14.011719 25.136719 14.25 24.71875 14.417969 C 24.300781 14.582031 23.867188 14.667969 23.414062 14.667969 L 13.210938 14.667969 C 13.125 14.667969 13.050781 14.699219 12.988281 14.757812 C 12.929688 14.816406 12.898438 14.886719 12.894531 14.972656 C 12.894531 15.054688 12.925781 15.125 12.988281 15.1875 C 13.050781 15.246094 13.125 15.273438 13.210938 15.273438 L 23.414062 15.273438 C 23.679688 15.273438 23.941406 15.25 24.203125 15.199219 C 24.460938 15.148438 24.714844 15.074219 24.960938 14.976562 C 25.207031 14.878906 25.4375 14.757812 25.660156 14.617188 C 25.878906 14.472656 26.085938 14.3125 26.273438 14.128906 C 26.460938 13.949219 26.628906 13.753906 26.773438 13.539062 C 26.921875 13.324219 27.046875 13.101562 27.148438 12.863281 C 27.25 12.625 27.328125 12.382812 27.378906 12.128906 C 27.429688 11.878906 27.457031 11.625 27.457031 11.367188 C 27.453125 10.945312 27.371094 10.539062 27.203125 10.152344 C 27.035156 9.761719 26.796875 9.417969 26.488281 9.117188 C 26.179688 8.820312 25.824219 8.589844 25.421875 8.429688 C 25.019531 8.265625 24.597656 8.1875 24.160156 8.183594 Z M 24.160156 8.183594 " fill-opacity="1" fill-rule="nonzero"/></g><g clip-path="url(#3e369eaad9)"><path fill="#000000" d="M 21.21875 15.667969 L 14.585938 15.667969 C 14.5 15.671875 14.425781 15.703125 14.367188 15.761719 C 14.304688 15.820312 14.273438 15.890625 14.273438 15.972656 C 14.273438 16.058594 14.304688 16.128906 14.363281 16.1875 C 14.425781 16.246094 14.5 16.277344 14.585938 16.277344 L 21.21875 16.277344 C 21.5 16.277344 21.769531 16.332031 22.027344 16.433594 C 22.285156 16.539062 22.511719 16.6875 22.710938 16.878906 C 22.910156 17.066406 23.0625 17.289062 23.167969 17.539062 C 23.277344 17.789062 23.332031 18.046875 23.332031 18.320312 C 23.332031 18.527344 23.289062 18.726562 23.207031 18.917969 C 23.121094 19.109375 23.003906 19.28125 22.851562 19.425781 C 22.699219 19.574219 22.523438 19.6875 22.324219 19.765625 C 22.125 19.847656 21.917969 19.886719 21.703125 19.886719 C 21.535156 19.886719 21.375 19.855469 21.222656 19.792969 C 21.066406 19.730469 20.933594 19.644531 20.816406 19.53125 C 20.695312 19.417969 20.605469 19.285156 20.542969 19.136719 C 20.476562 18.988281 20.445312 18.832031 20.445312 18.671875 C 20.449219 18.425781 20.539062 18.214844 20.722656 18.039062 C 20.902344 17.863281 21.121094 17.777344 21.375 17.777344 L 21.445312 17.777344 C 21.21875 17.78125 21.027344 17.863281 20.867188 18.023438 C 20.710938 18.183594 20.636719 18.371094 20.640625 18.59375 C 20.640625 18.84375 20.734375 19.0625 20.917969 19.242188 C 21.105469 19.421875 21.328125 19.507812 21.589844 19.507812 C 21.738281 19.511719 21.878906 19.484375 22.015625 19.429688 C 22.152344 19.375 22.273438 19.300781 22.375 19.199219 C 22.480469 19.097656 22.5625 18.980469 22.617188 18.851562 C 22.675781 18.71875 22.703125 18.582031 22.703125 18.441406 C 22.703125 18.273438 22.667969 18.113281 22.605469 17.957031 C 22.539062 17.800781 22.441406 17.664062 22.320312 17.546875 C 22.199219 17.429688 22.054688 17.335938 21.894531 17.273438 C 21.734375 17.207031 21.570312 17.175781 21.394531 17.175781 C 21.1875 17.175781 20.992188 17.214844 20.800781 17.289062 C 20.609375 17.367188 20.441406 17.476562 20.296875 17.617188 C 20.148438 17.757812 20.035156 17.917969 19.957031 18.101562 C 19.878906 18.285156 19.835938 18.476562 19.835938 18.675781 C 19.835938 18.917969 19.882812 19.152344 19.980469 19.375 C 20.074219 19.597656 20.210938 19.796875 20.390625 19.964844 C 20.566406 20.136719 20.769531 20.269531 21 20.359375 C 21.230469 20.453125 21.472656 20.5 21.722656 20.5 C 22.019531 20.5 22.308594 20.445312 22.585938 20.335938 C 22.859375 20.222656 23.105469 20.066406 23.316406 19.863281 C 23.527344 19.660156 23.691406 19.425781 23.804688 19.15625 C 23.921875 18.890625 23.976562 18.613281 23.980469 18.324219 C 23.980469 17.972656 23.910156 17.632812 23.769531 17.304688 C 23.628906 16.980469 23.429688 16.691406 23.171875 16.441406 C 22.910156 16.195312 22.613281 16.003906 22.273438 15.867188 C 21.9375 15.734375 21.585938 15.667969 21.21875 15.667969 Z M 22.074219 18.453125 C 22.074219 18.582031 22.023438 18.6875 21.929688 18.777344 C 21.835938 18.871094 21.722656 18.914062 21.589844 18.914062 C 21.5 18.914062 21.425781 18.882812 21.363281 18.824219 C 21.300781 18.761719 21.269531 18.691406 21.269531 18.605469 C 21.269531 18.480469 21.335938 18.414062 21.464844 18.414062 C 21.550781 18.414062 21.625 18.386719 21.6875 18.328125 C 21.75 18.269531 21.777344 18.195312 21.777344 18.113281 C 21.777344 17.980469 21.714844 17.886719 21.589844 17.832031 C 21.734375 17.871094 21.847656 17.949219 21.9375 18.066406 C 22.027344 18.179688 22.074219 18.308594 22.074219 18.453125 Z M 22.074219 18.453125 " fill-opacity="1" fill-rule="nonzero"/></g><g clip-path="url(#b1ab83653e)"><path fill="#000000" d="M 21.15625 11.617188 C 21.15625 11.328125 21.097656 11.050781 20.984375 10.785156 C 20.871094 10.515625 20.707031 10.28125 20.496094 10.078125 C 20.285156 9.875 20.039062 9.714844 19.761719 9.605469 C 19.488281 9.496094 19.199219 9.441406 18.898438 9.441406 C 18.648438 9.441406 18.410156 9.488281 18.179688 9.582031 C 17.945312 9.671875 17.742188 9.804688 17.566406 9.976562 C 17.390625 10.148438 17.253906 10.34375 17.15625 10.566406 C 17.0625 10.789062 17.015625 11.023438 17.015625 11.265625 C 17.015625 11.464844 17.054688 11.65625 17.132812 11.839844 C 17.210938 12.023438 17.324219 12.1875 17.46875 12.328125 C 17.613281 12.46875 17.78125 12.578125 17.972656 12.65625 C 18.164062 12.730469 18.359375 12.769531 18.566406 12.773438 C 18.738281 12.773438 18.90625 12.738281 19.066406 12.675781 C 19.226562 12.613281 19.367188 12.519531 19.492188 12.402344 C 19.613281 12.28125 19.707031 12.148438 19.773438 11.992188 C 19.839844 11.835938 19.875 11.675781 19.875 11.507812 C 19.875 11.367188 19.847656 11.230469 19.789062 11.097656 C 19.734375 10.96875 19.652344 10.851562 19.550781 10.753906 C 19.445312 10.652344 19.328125 10.574219 19.191406 10.519531 C 19.054688 10.464844 18.914062 10.4375 18.769531 10.4375 C 18.640625 10.4375 18.519531 10.460938 18.402344 10.507812 C 18.285156 10.554688 18.183594 10.621094 18.09375 10.707031 C 18.003906 10.792969 17.9375 10.890625 17.890625 11.003906 C 17.839844 11.117188 17.816406 11.234375 17.820312 11.355469 C 17.820312 11.574219 17.898438 11.761719 18.058594 11.914062 C 18.21875 12.070312 18.410156 12.144531 18.636719 12.144531 C 18.605469 12.148438 18.578125 12.148438 18.546875 12.144531 C 18.292969 12.144531 18.074219 12.058594 17.890625 11.882812 C 17.710938 11.707031 17.621094 11.496094 17.625 11.246094 C 17.625 11.085938 17.65625 10.929688 17.71875 10.78125 C 17.78125 10.632812 17.875 10.5 17.992188 10.386719 C 18.109375 10.273438 18.246094 10.1875 18.398438 10.125 C 18.554688 10.0625 18.714844 10.03125 18.882812 10.03125 C 19.097656 10.03125 19.304688 10.070312 19.503906 10.152344 C 19.703125 10.230469 19.878906 10.34375 20.03125 10.492188 C 20.183594 10.636719 20.300781 10.808594 20.382812 11 C 20.464844 11.191406 20.507812 11.390625 20.507812 11.597656 C 20.507812 11.871094 20.453125 12.128906 20.347656 12.378906 C 20.238281 12.628906 20.085938 12.847656 19.886719 13.039062 C 19.691406 13.230469 19.460938 13.375 19.203125 13.480469 C 18.945312 13.582031 18.675781 13.632812 18.398438 13.632812 L 11.789062 13.632812 C 11.703125 13.632812 11.628906 13.664062 11.566406 13.722656 C 11.507812 13.78125 11.476562 13.855469 11.476562 13.9375 C 11.476562 14.023438 11.507812 14.09375 11.566406 14.152344 C 11.628906 14.210938 11.703125 14.242188 11.789062 14.242188 L 18.414062 14.242188 C 18.777344 14.242188 19.125 14.175781 19.457031 14.042969 C 19.792969 13.910156 20.089844 13.71875 20.34375 13.476562 C 20.601562 13.230469 20.800781 12.945312 20.941406 12.625 C 21.082031 12.300781 21.152344 11.964844 21.15625 11.617188 Z M 18.640625 11.515625 C 18.511719 11.519531 18.449219 11.457031 18.453125 11.332031 C 18.453125 11.246094 18.484375 11.171875 18.546875 11.113281 C 18.609375 11.050781 18.683594 11.023438 18.773438 11.023438 C 18.90625 11.023438 19.019531 11.066406 19.113281 11.15625 C 19.207031 11.246094 19.25 11.355469 19.25 11.484375 C 19.25 11.625 19.203125 11.753906 19.113281 11.863281 C 19.023438 11.976562 18.910156 12.050781 18.769531 12.089844 C 18.898438 12.039062 18.960938 11.949219 18.957031 11.8125 C 18.953125 11.734375 18.925781 11.664062 18.867188 11.605469 C 18.8125 11.550781 18.742188 11.519531 18.660156 11.515625 Z M 18.640625 11.515625 " fill-opacity="1" fill-rule="nonzero"/></g><g clip-path="url(#774625fec7)"><path fill="#000000" d="M 90.152344 8.183594 C 89.796875 8.183594 89.449219 8.25 89.121094 8.382812 C 88.789062 8.515625 88.496094 8.703125 88.242188 8.949219 C 87.992188 9.191406 87.796875 9.472656 87.65625 9.792969 C 87.519531 10.113281 87.449219 10.445312 87.449219 10.792969 C 87.449219 11.074219 87.507812 11.351562 87.621094 11.613281 C 87.734375 11.875 87.894531 12.109375 88.105469 12.308594 C 88.3125 12.511719 88.550781 12.667969 88.824219 12.777344 C 89.097656 12.886719 89.378906 12.941406 89.675781 12.941406 C 89.917969 12.941406 90.15625 12.898438 90.378906 12.804688 C 90.605469 12.714844 90.804688 12.585938 90.976562 12.421875 C 91.152344 12.253906 91.285156 12.0625 91.378906 11.84375 C 91.46875 11.625 91.515625 11.398438 91.515625 11.160156 C 91.515625 10.964844 91.476562 10.777344 91.402344 10.59375 C 91.324219 10.414062 91.210938 10.253906 91.066406 10.113281 C 90.925781 9.972656 90.757812 9.867188 90.570312 9.792969 C 90.382812 9.71875 90.1875 9.679688 89.984375 9.679688 C 89.8125 9.679688 89.648438 9.710938 89.488281 9.773438 C 89.328125 9.835938 89.191406 9.925781 89.066406 10.042969 C 88.945312 10.160156 88.851562 10.292969 88.789062 10.445312 C 88.722656 10.601562 88.6875 10.757812 88.6875 10.925781 C 88.6875 11.066406 88.714844 11.203125 88.773438 11.332031 C 88.828125 11.460938 88.90625 11.578125 89.011719 11.675781 C 89.113281 11.777344 89.234375 11.851562 89.367188 11.90625 C 89.503906 11.960938 89.644531 11.988281 89.789062 11.988281 C 89.875 11.988281 89.949219 11.957031 90.007812 11.898438 C 90.070312 11.839844 90.101562 11.765625 90.101562 11.683594 C 90.101562 11.601562 90.070312 11.527344 90.011719 11.46875 C 89.949219 11.410156 89.875 11.378906 89.789062 11.378906 C 89.660156 11.378906 89.546875 11.332031 89.457031 11.246094 C 89.367188 11.15625 89.320312 11.050781 89.316406 10.925781 C 89.320312 10.75 89.382812 10.597656 89.515625 10.472656 C 89.644531 10.347656 89.800781 10.285156 89.984375 10.285156 C 90.234375 10.289062 90.445312 10.375 90.621094 10.546875 C 90.796875 10.714844 90.886719 10.921875 90.890625 11.160156 C 90.886719 11.316406 90.855469 11.464844 90.792969 11.609375 C 90.734375 11.753906 90.644531 11.878906 90.53125 11.988281 C 90.417969 12.097656 90.285156 12.183594 90.140625 12.242188 C 89.992188 12.304688 89.835938 12.332031 89.675781 12.335938 C 89.464844 12.335938 89.261719 12.296875 89.0625 12.21875 C 88.867188 12.136719 88.695312 12.027344 88.546875 11.882812 C 88.398438 11.738281 88.28125 11.570312 88.199219 11.382812 C 88.121094 11.191406 88.078125 10.996094 88.078125 10.792969 C 88.078125 10.527344 88.132812 10.269531 88.238281 10.027344 C 88.34375 9.78125 88.492188 9.566406 88.6875 9.378906 C 88.882812 9.191406 89.105469 9.046875 89.359375 8.945312 C 89.613281 8.84375 89.878906 8.792969 90.152344 8.792969 C 90.507812 8.792969 90.847656 8.859375 91.171875 8.988281 C 91.5 9.121094 91.789062 9.304688 92.039062 9.546875 C 92.289062 9.789062 92.480469 10.066406 92.617188 10.382812 C 92.75 10.699219 92.820312 11.027344 92.820312 11.367188 C 92.820312 11.804688 92.730469 12.226562 92.558594 12.628906 C 92.386719 13.035156 92.140625 13.390625 91.820312 13.699219 C 91.5 14.011719 91.128906 14.25 90.710938 14.417969 C 90.292969 14.582031 89.859375 14.667969 89.40625 14.667969 L 79.203125 14.667969 C 79.117188 14.667969 79.042969 14.699219 78.980469 14.757812 C 78.921875 14.816406 78.890625 14.886719 78.886719 14.972656 C 78.886719 15.054688 78.917969 15.125 78.980469 15.1875 C 79.042969 15.246094 79.117188 15.273438 79.203125 15.273438 L 89.40625 15.273438 C 89.671875 15.273438 89.933594 15.25 90.195312 15.199219 C 90.453125 15.148438 90.707031 15.074219 90.953125 14.976562 C 91.195312 14.878906 91.429688 14.757812 91.652344 14.617188 C 91.871094 14.472656 92.074219 14.3125 92.261719 14.128906 C 92.449219 13.949219 92.617188 13.753906 92.765625 13.539062 C 92.914062 13.324219 93.039062 13.101562 93.140625 12.863281 C 93.242188 12.625 93.316406 12.382812 93.371094 12.128906 C 93.421875 11.878906 93.449219 11.625 93.449219 11.367188 C 93.445312 10.945312 93.363281 10.539062 93.195312 10.152344 C 93.027344 9.761719 92.789062 9.417969 92.480469 9.117188 C 92.171875 8.820312 91.816406 8.589844 91.414062 8.429688 C 91.007812 8.265625 90.589844 8.1875 90.152344 8.183594 Z M 90.152344 8.183594 " fill-opacity="1" fill-rule="nonzero"/></g><g clip-path="url(#6821babffd)"><path fill="#000000" d="M 87.210938 15.667969 L 80.578125 15.667969 C 80.492188 15.671875 80.417969 15.703125 80.359375 15.761719 C 80.296875 15.820312 80.265625 15.890625 80.265625 15.972656 C 80.265625 16.058594 80.296875 16.128906 80.355469 16.1875 C 80.417969 16.246094 80.492188 16.277344 80.578125 16.277344 L 87.210938 16.277344 C 87.492188 16.277344 87.761719 16.332031 88.019531 16.433594 C 88.277344 16.539062 88.503906 16.6875 88.703125 16.878906 C 88.902344 17.066406 89.054688 17.289062 89.160156 17.539062 C 89.269531 17.789062 89.324219 18.046875 89.324219 18.320312 C 89.324219 18.527344 89.28125 18.726562 89.199219 18.917969 C 89.113281 19.109375 88.996094 19.28125 88.84375 19.425781 C 88.691406 19.574219 88.515625 19.6875 88.316406 19.765625 C 88.117188 19.847656 87.910156 19.886719 87.695312 19.886719 C 87.527344 19.886719 87.367188 19.855469 87.214844 19.792969 C 87.058594 19.730469 86.925781 19.644531 86.804688 19.53125 C 86.6875 19.417969 86.597656 19.285156 86.535156 19.136719 C 86.46875 18.988281 86.4375 18.832031 86.4375 18.671875 C 86.441406 18.425781 86.53125 18.214844 86.710938 18.039062 C 86.894531 17.863281 87.113281 17.777344 87.367188 17.777344 L 87.4375 17.777344 C 87.210938 17.78125 87.019531 17.863281 86.859375 18.023438 C 86.703125 18.183594 86.628906 18.371094 86.632812 18.59375 C 86.632812 18.84375 86.726562 19.0625 86.910156 19.242188 C 87.097656 19.421875 87.320312 19.507812 87.582031 19.507812 C 87.730469 19.511719 87.871094 19.484375 88.007812 19.429688 C 88.144531 19.375 88.265625 19.300781 88.367188 19.199219 C 88.472656 19.097656 88.554688 18.980469 88.609375 18.851562 C 88.667969 18.71875 88.695312 18.582031 88.695312 18.441406 C 88.695312 18.273438 88.660156 18.113281 88.59375 17.957031 C 88.527344 17.800781 88.433594 17.664062 88.3125 17.546875 C 88.1875 17.429688 88.046875 17.335938 87.886719 17.273438 C 87.726562 17.207031 87.558594 17.175781 87.386719 17.175781 C 87.179688 17.175781 86.984375 17.214844 86.792969 17.289062 C 86.601562 17.367188 86.433594 17.476562 86.285156 17.617188 C 86.140625 17.757812 86.027344 17.917969 85.949219 18.101562 C 85.867188 18.285156 85.828125 18.476562 85.828125 18.675781 C 85.828125 18.917969 85.875 19.152344 85.972656 19.375 C 86.066406 19.597656 86.203125 19.796875 86.378906 19.964844 C 86.558594 20.136719 86.761719 20.269531 86.992188 20.359375 C 87.222656 20.453125 87.464844 20.5 87.714844 20.5 C 88.011719 20.5 88.300781 20.445312 88.578125 20.335938 C 88.851562 20.222656 89.097656 20.066406 89.308594 19.863281 C 89.519531 19.660156 89.683594 19.425781 89.796875 19.15625 C 89.914062 18.890625 89.96875 18.613281 89.972656 18.324219 C 89.972656 17.972656 89.902344 17.632812 89.761719 17.304688 C 89.621094 16.980469 89.421875 16.691406 89.160156 16.441406 C 88.902344 16.195312 88.605469 16.003906 88.265625 15.867188 C 87.929688 15.734375 87.578125 15.667969 87.210938 15.667969 Z M 88.066406 18.453125 C 88.0625 18.582031 88.015625 18.6875 87.921875 18.777344 C 87.828125 18.871094 87.714844 18.914062 87.582031 18.914062 C 87.492188 18.914062 87.417969 18.882812 87.355469 18.824219 C 87.292969 18.761719 87.261719 18.691406 87.261719 18.605469 C 87.261719 18.480469 87.328125 18.414062 87.457031 18.414062 C 87.542969 18.414062 87.617188 18.386719 87.679688 18.328125 C 87.738281 18.269531 87.769531 18.195312 87.769531 18.113281 C 87.769531 17.980469 87.707031 17.886719 87.582031 17.832031 C 87.726562 17.871094 87.839844 17.949219 87.929688 18.066406 C 88.019531 18.179688 88.066406 18.308594 88.066406 18.453125 Z M 88.066406 18.453125 " fill-opacity="1" fill-rule="nonzero"/></g><g clip-path="url(#1bfa5c3b00)"><path fill="#000000" d="M 87.148438 11.617188 C 87.148438 11.328125 87.089844 11.050781 86.976562 10.785156 C 86.863281 10.515625 86.699219 10.28125 86.488281 10.078125 C 86.273438 9.875 86.03125 9.714844 85.753906 9.605469 C 85.476562 9.496094 85.191406 9.441406 84.890625 9.441406 C 84.640625 9.441406 84.402344 9.488281 84.167969 9.582031 C 83.9375 9.671875 83.734375 9.804688 83.558594 9.976562 C 83.382812 10.148438 83.246094 10.34375 83.148438 10.566406 C 83.054688 10.789062 83.003906 11.023438 83.003906 11.265625 C 83.003906 11.464844 83.042969 11.65625 83.125 11.839844 C 83.203125 12.023438 83.3125 12.1875 83.460938 12.328125 C 83.605469 12.46875 83.773438 12.578125 83.964844 12.65625 C 84.152344 12.730469 84.351562 12.769531 84.558594 12.773438 C 84.730469 12.773438 84.898438 12.738281 85.058594 12.675781 C 85.21875 12.613281 85.359375 12.519531 85.484375 12.402344 C 85.605469 12.28125 85.699219 12.148438 85.765625 11.992188 C 85.832031 11.835938 85.867188 11.675781 85.867188 11.507812 C 85.867188 11.367188 85.835938 11.230469 85.78125 11.097656 C 85.726562 10.96875 85.644531 10.851562 85.542969 10.753906 C 85.4375 10.652344 85.316406 10.574219 85.183594 10.519531 C 85.046875 10.464844 84.90625 10.4375 84.757812 10.4375 C 84.632812 10.4375 84.511719 10.460938 84.394531 10.507812 C 84.277344 10.554688 84.175781 10.621094 84.085938 10.707031 C 83.996094 10.792969 83.929688 10.890625 83.878906 11.003906 C 83.832031 11.117188 83.808594 11.234375 83.808594 11.355469 C 83.808594 11.574219 83.890625 11.761719 84.050781 11.914062 C 84.210938 12.070312 84.402344 12.144531 84.628906 12.144531 C 84.597656 12.148438 84.570312 12.148438 84.539062 12.144531 C 84.28125 12.144531 84.0625 12.058594 83.882812 11.882812 C 83.703125 11.707031 83.613281 11.496094 83.613281 11.246094 C 83.613281 11.085938 83.648438 10.929688 83.710938 10.78125 C 83.773438 10.632812 83.867188 10.5 83.984375 10.386719 C 84.101562 10.273438 84.238281 10.1875 84.390625 10.125 C 84.546875 10.0625 84.707031 10.03125 84.871094 10.03125 C 85.089844 10.03125 85.296875 10.070312 85.496094 10.152344 C 85.691406 10.230469 85.867188 10.34375 86.023438 10.492188 C 86.175781 10.636719 86.292969 10.808594 86.375 11 C 86.457031 11.191406 86.5 11.390625 86.5 11.597656 C 86.5 11.871094 86.445312 12.128906 86.339844 12.378906 C 86.230469 12.628906 86.078125 12.847656 85.878906 13.039062 C 85.683594 13.230469 85.453125 13.375 85.195312 13.480469 C 84.9375 13.582031 84.667969 13.632812 84.386719 13.632812 L 77.78125 13.632812 C 77.695312 13.632812 77.621094 13.664062 77.558594 13.722656 C 77.496094 13.78125 77.46875 13.855469 77.46875 13.9375 C 77.46875 14.023438 77.496094 14.09375 77.558594 14.152344 C 77.621094 14.210938 77.695312 14.242188 77.78125 14.242188 L 84.40625 14.242188 C 84.769531 14.242188 85.117188 14.175781 85.449219 14.042969 C 85.785156 13.910156 86.078125 13.71875 86.335938 13.476562 C 86.59375 13.230469 86.792969 12.945312 86.933594 12.625 C 87.074219 12.300781 87.144531 11.964844 87.148438 11.617188 Z M 84.632812 11.515625 C 84.503906 11.519531 84.441406 11.457031 84.445312 11.332031 C 84.445312 11.246094 84.476562 11.171875 84.539062 11.113281 C 84.601562 11.050781 84.675781 11.023438 84.765625 11.023438 C 84.898438 11.023438 85.011719 11.066406 85.101562 11.15625 C 85.195312 11.246094 85.242188 11.355469 85.242188 11.484375 C 85.242188 11.625 85.195312 11.753906 85.105469 11.863281 C 85.015625 11.976562 84.902344 12.050781 84.757812 12.089844 C 84.890625 12.039062 84.953125 11.949219 84.949219 11.8125 C 84.945312 11.734375 84.917969 11.664062 84.859375 11.605469 C 84.804688 11.550781 84.734375 11.519531 84.652344 11.515625 Z M 84.632812 11.515625 " fill-opacity="1" fill-rule="nonzero"/></g></svg>